<svg width="77" height="72" viewBox="0 0 77 72" fill="none" xmlns="http://www.w3.org/2000/svg">
<circle cx="35" cy="37" r="35" fill="url(#paint0_linear_72_55)" fill-opacity="0.5"/>
<path d="M30.5829 32.1805C33.576 32.4495 36.6341 32.7619 39.6614 32.7423C43.1018 33.0449 46.6561 32.5733 50.0534 32.0042C51.5695 31.7499 54.9806 31.3899 55.8802 29.7645C57.9582 26.0108 48.9147 24.3132 47.0148 24.1008C46.9391 24.0926 46.9212 24.223 46.9969 24.2361C48.8876 24.5545 50.7154 25.177 52.4105 26.0797C53.5817 26.7104 55.7216 27.7486 54.6309 29.6004C54.6002 29.5746 54.5676 29.5513 54.5333 29.5307C50.3307 27.1286 45.9826 27.2713 41.3027 27.8741C39.3181 28.13 37.3515 28.6639 35.3393 28.6024C34.308 28.5704 33.2889 28.2817 32.2559 28.2973C29.7516 28.3358 27.4963 29.9424 24.9895 29.8276C24.9352 29.8235 24.8814 29.8405 24.8391 29.8752C24.0257 29.2388 23.8403 28.317 25.1986 26.9802C26.8033 25.3982 29.9046 24.5797 32.0453 24.2377C32.1209 24.2254 32.1038 24.0934 32.0274 24.1024C29.9029 24.3591 21.2555 25.9165 23.3848 29.8079C24.4519 31.7614 28.7472 32.0165 30.5829 32.1805ZM43.7793 28.9862C43.5003 29.0823 43.2595 29.2667 43.0928 29.5119C43.0555 29.5753 43.0357 29.6476 43.0357 29.7214C43.0357 29.7952 43.0555 29.8675 43.0928 29.9309C43.148 30.0096 43.2078 30.0849 43.2718 30.1565C42.3722 29.9211 41.3287 29.5635 40.3503 29.3437C41.5003 29.215 42.6431 29.0813 43.7793 28.987V28.9862ZM28.2299 30.236C29.7801 29.8719 31.1278 29.347 32.7675 29.4159C34.0501 29.4676 35.2669 29.748 36.5642 29.6857C36.8895 29.6701 37.21 29.648 37.532 29.6242C37.532 29.6242 37.5239 29.6291 37.5207 29.6324C37.4206 29.7349 37.349 29.9236 37.4076 30.0654C37.8704 31.1882 36.8253 30.4402 36.0932 30.2885C35.0961 30.0827 34.4227 29.9539 33.4092 30.0228C32.9025 30.0572 32.8944 30.8043 33.4092 30.824C34.7659 30.8757 37.3816 32.26 38.5203 31.1308C38.6715 30.9815 38.6732 30.7715 38.5894 30.5903C38.3527 30.0736 42.1616 31.1127 42.3836 31.1644C43.1656 31.3604 43.9768 31.4096 44.7765 31.3095C45.2311 31.2587 45.4027 30.7191 45.0091 30.4443C44.2315 29.9022 44.4259 29.9728 45.1717 29.7841C46.1697 29.5307 47.9062 30.1261 48.8757 30.3689C48.8951 30.3713 48.9147 30.3666 48.931 30.3556C48.9472 30.3446 48.959 30.3281 48.9641 30.309C48.9692 30.29 48.9674 30.2697 48.9589 30.252C48.9505 30.2342 48.9359 30.2201 48.918 30.2122C48.1469 29.9195 46.5186 29.0977 45.1303 28.9001C47.9713 28.7672 50.7626 29.0403 53.4914 30.4878C52.7594 30.7478 51.8411 30.8806 51.3434 30.9725C50.6 31.1111 49.8566 31.2275 49.114 31.3341C49.4092 31.2464 49.6663 31.0832 49.7508 30.774C49.7688 30.7021 49.7585 30.6259 49.7221 30.5614C49.6858 30.497 49.6261 30.4491 49.5556 30.4279C49.3068 30.3418 49.1693 30.4074 48.9253 30.487C48.5933 30.5962 48.2401 30.6229 47.8956 30.5649C47.2946 30.4574 46.8236 30.2106 46.1998 30.3139C45.8468 30.373 45.9428 30.9249 46.2811 30.929C47.0416 30.9372 47.6784 31.4514 48.456 31.4293C46.3153 31.7147 44.1738 31.8877 42.0168 32.0091C37.7061 31.7721 33.3824 31.8328 29.0928 31.2078C28.3364 31.0979 27.2815 30.9208 26.3438 30.6141C26.9773 30.5698 27.6288 30.3763 28.2299 30.236Z" fill="#724B09"/>
<path d="M34.5689 23.9884C37.8521 23.6641 40.9033 23.7868 44.1872 24.0994C44.4806 24.1276 44.5364 23.5697 44.2559 23.4859C41.1611 22.5638 37.6136 22.7585 34.552 23.8131C34.4719 23.8404 34.4833 23.9971 34.5689 23.9884Z" fill="#724B09"/>
<path d="M30.6922 30.943C30.9673 31.0481 31.2236 31.0303 31.5184 31.0244C31.841 31.0177 32.162 31.0244 32.4838 30.9985C32.5343 30.9969 32.5825 30.9793 32.62 30.9487C32.6574 30.9181 32.6817 30.8766 32.6885 30.8313C32.6952 30.7861 32.6841 30.7402 32.657 30.7017C32.6298 30.6632 32.5885 30.6347 32.5403 30.6211C32.0286 30.4494 31.1819 30.3051 30.6922 30.5826C30.562 30.6559 30.5284 30.8779 30.6922 30.943Z" fill="#724B09"/>
<path d="M51.3058 47.2896C53.323 46.79 55.7873 46.2195 56.2351 43.8259C56.7749 40.9385 56.344 37.4878 55.9721 34.6069C55.9285 34.2638 55.4573 34.2467 55.4306 34.6069C55.2854 36.5767 55.237 38.5343 55.195 40.509C55.1757 41.4055 55.2757 42.4111 55.0772 43.2856C54.7069 44.8968 52.6743 46.2872 51.2041 46.9058C50.9734 47.0011 51.0516 47.3524 51.3058 47.2896Z" fill="#724B09"/>
<path d="M22.878 34.4102C22.6186 35.9759 22.6328 37.5401 22.5955 39.1197C22.5529 40.9276 22.3158 42.7903 22.5485 44.5843C22.5884 44.896 23.1187 45.0351 23.2004 44.6661C23.8861 41.5616 23.7502 37.5114 23.0743 34.411C23.0556 34.3227 22.8931 34.3186 22.878 34.4102Z" fill="#724B09"/>
<path d="M38.644 48.8025C45.5326 48.2955 51.8596 41.7933 52.2715 34.8734C52.2884 34.5821 51.892 34.5773 51.7981 34.8099C50.5109 38.0119 49.4599 40.987 47.0796 43.5959C44.6086 46.3062 41.848 46.9983 38.5842 48.3325C38.3512 48.4251 38.3455 48.8242 38.644 48.8025Z" fill="#724B09"/>
<path d="M52.1052 40.4C51.3963 41.4452 50.7412 42.5051 50.0595 43.5684C49.3431 44.685 48.4177 45.3374 47.5279 46.2609C47.3389 46.4565 47.5329 46.7342 47.7767 46.6898C50.2096 46.2617 51.4468 42.395 52.2661 40.4953C52.2738 40.4747 52.2739 40.452 52.2665 40.4312C52.2591 40.4104 52.2446 40.3929 52.2256 40.3816C52.2065 40.3703 52.184 40.3659 52.162 40.3693C52.1401 40.3727 52.12 40.3835 52.1052 40.4Z" fill="#724B09"/>
<path d="M62.2333 32.3412C62.2095 32.8255 62.2381 33.3113 62.2333 33.7956C62.2278 34.2295 62.1658 34.6866 62.2929 35.1037C62.3557 35.3075 62.6108 35.2811 62.6791 35.1037C62.989 34.3382 62.7141 33.0604 62.4312 32.314C62.4259 32.2892 62.4115 32.2672 62.3908 32.2526C62.3702 32.238 62.3448 32.2318 62.3197 32.2352C62.2947 32.2387 62.2719 32.2515 62.2558 32.2712C62.2398 32.2908 62.2318 32.3158 62.2333 32.3412Z" fill="#724B09"/>
<path d="M51.7607 56.6954C56.1094 56.2303 59.2543 54.6483 62.5604 51.9286C66.3186 50.2543 68.5397 48.1391 68.5397 45.8099C68.5397 43.8552 66.9734 42.0504 64.2481 40.5301C64.3654 40.402 64.4924 40.2781 64.5959 40.1435C66.1149 38.2261 65.6784 35.0314 65.7362 32.7606C65.8714 27.369 61.6636 26.4556 56.9582 26.4046C56.9093 26.408 56.861 26.4167 56.814 26.4305C54.8706 23.9992 50.4697 23.0778 47.8315 22.5916C47.8088 22.5884 47.7858 22.5884 47.7631 22.5916C40.5587 21.0591 31.9102 21.3686 25.2312 24.3931C22.2623 25.7376 21.1008 27.1193 20.9957 30.4161C20.9143 33.0354 20.8906 35.6563 20.8719 38.2771C14.794 40.0827 11 42.7644 11 45.8099C11 48.6399 14.2743 51.1587 19.6119 52.9465C20.8849 53.8582 22.2639 54.7221 23.5639 55.4733C25.5423 56.6209 27.7057 56.689 29.9383 56.8729C35.6057 57.3316 41.6673 57.9719 47.3599 57.1266C48.8448 57.001 50.3166 56.851 51.7607 56.6954ZM61.5162 28.3107C64.6276 29.3982 64.5193 32.417 64.4484 35.1595C64.4004 36.9302 64.033 38.5575 63.0279 39.9028C62.7668 40.2571 62.469 40.5831 62.1393 40.8753C62.1287 40.8842 62.1206 40.8948 62.1091 40.9045C60.891 41.9513 59.6019 42.9134 58.2508 43.7839C58.2435 43.4824 58.2345 43.1818 58.2264 42.8803C59.238 42.394 60.1527 41.3454 61.0096 40.6273C61.7426 40.0098 62.3568 39.4725 62.6541 38.5308C62.7037 38.3752 62.4618 38.2698 62.3877 38.4182C61.8795 39.4336 61.1407 40.069 60.2439 40.7457C59.6061 41.2262 58.7924 41.6768 58.2076 42.2563C58.1962 41.8376 58.1851 41.4186 58.1742 40.9993C58.6548 40.6849 59.207 40.334 59.7568 39.9458C60.1606 39.6601 60.5476 39.3516 60.9159 39.0219C61.8607 38.171 62.5995 37.1636 62.6264 35.9602C62.6258 35.9265 62.6143 35.894 62.5937 35.8673C62.573 35.8407 62.5443 35.8214 62.5117 35.8123C62.4791 35.8032 62.4445 35.8047 62.4129 35.8168C62.3813 35.8288 62.3545 35.8507 62.3364 35.8791C62.092 36.2778 61.8477 36.6774 61.5813 37.0607C61.8762 35.3021 61.337 33.0224 61.0258 31.7744C61.0159 31.746 61.0028 31.7188 60.9868 31.6933C61.4543 31.5751 61.9436 31.5712 62.413 31.682C62.6402 31.7355 62.8202 31.3886 62.5808 31.2865C61.5089 30.8246 60.4435 31.0264 59.4522 31.6034C58.9555 31.8815 58.4862 32.2054 58.0504 32.571C58.0561 32.131 58.0553 31.6917 58.0455 31.2533C59.2372 30.8124 60.2651 30.1252 61.6294 30.3294C61.8452 30.361 61.9438 30.0587 61.7223 29.9955C60.5062 29.647 59.128 29.8334 58.0138 30.4615C57.9616 29.57 57.8509 28.7005 57.6065 27.8965C57.5967 27.8633 57.5796 27.8341 57.569 27.8009C58.8918 27.8593 60.2936 27.8836 61.5162 28.3107ZM59.9686 32.1553C60.3351 33.2169 60.6039 34.2721 60.6406 35.4042C60.6707 36.3103 60.6161 37.7115 60.16 38.6037C60.1152 38.6378 60.0712 38.6726 60.0264 38.705C59.4107 38.497 58.7683 38.2982 58.0993 38.1086C58.0757 37.2901 58.0594 36.4707 58.0333 35.6522C58.0187 35.1846 58.0219 34.6967 58.0333 34.2024C58.522 33.9317 58.7973 33.2526 59.1736 32.8352C59.4073 32.5759 59.6734 32.3473 59.9653 32.1553H59.9686ZM58.1441 39.804L58.1343 39.4296C58.2915 39.4757 58.4495 39.5219 58.6035 39.5689C58.4487 39.6467 58.2956 39.727 58.1408 39.804H58.1441ZM27.5184 24.3453C33.8284 21.9513 41.4669 22.1888 48.0971 23.1605C50.2384 23.7983 52.4588 24.4069 54.4063 25.518C56.2047 26.5448 56.7602 27.9322 56.9459 29.6138C56.9459 29.6138 56.9459 29.6138 56.9419 29.6203C56.0264 31.8846 52.9369 32.4008 50.8444 32.9033C48.1801 33.5427 45.5395 33.3701 42.8329 33.6116C42.7588 33.6116 42.6877 33.6409 42.6353 33.693C42.5829 33.7451 42.5535 33.8158 42.5535 33.8896C42.5535 33.9633 42.5829 34.034 42.6353 34.0861C42.6877 34.1382 42.7588 34.1675 42.8329 34.1675C46.692 34.5249 50.4722 34.2753 54.1986 33.1464C55.2575 32.8263 56.3228 32.3943 57.0494 31.6714C57.0836 33.734 57.1308 35.7956 57.1699 37.8573C57.1781 38.2939 57.1865 38.7307 57.1952 39.1678C57.2351 41.2076 57.2693 43.2482 57.3141 45.2889C52.0939 49.5476 44.0106 49.7461 37.3911 49.7867C32.2002 49.6384 25.8103 48.5581 21.8404 45.2783C21.8196 45.2643 21.7978 45.2519 21.7752 45.241C21.8143 43.2609 21.8415 41.2808 21.8567 39.3007L21.8664 37.9959C21.873 37.0342 21.88 36.072 21.8876 35.1092C21.8958 33.9649 21.7891 32.6942 21.8062 31.4688C22.5392 32.306 23.7064 32.7939 24.8549 33.1456C28.5723 34.2802 32.368 34.5233 36.2206 34.1675C36.2947 34.1675 36.3658 34.1382 36.4182 34.0861C36.4706 34.034 36.5 33.9633 36.5 33.8896C36.5 33.8158 36.4706 33.7451 36.4182 33.693C36.3658 33.6409 36.2947 33.6116 36.2206 33.6116C33.505 33.3685 30.8823 33.5727 28.2082 32.9041C26.0449 32.3635 22.9954 31.8951 22.0391 29.553C22.0258 29.5274 22.0103 29.503 21.9927 29.4801C21.9927 29.4695 21.9927 29.459 21.9976 29.4485C22.6296 26.4394 24.8313 25.3648 27.5159 24.3453H27.5184ZM42.8638 51.371C41.5989 51.2211 40.2891 51.2357 39.0356 51.3005C38.6365 51.3216 38.239 51.3686 37.8415 51.4188C34.6649 51.2851 27.5786 51.4788 25.0268 48.6464C25.8543 48.93 26.6916 49.1553 27.4483 49.3652C30.5948 50.2397 34.0728 50.5809 37.3732 50.5112C41.3863 50.6384 45.4996 50.6303 49.4402 49.8936C50.719 49.6546 52.3553 49.332 53.9037 48.7996C51.6312 51.0695 46.3076 51.2794 42.8638 51.371ZM12.2747 45.8099C12.2747 43.5797 15.4253 41.2651 20.8638 39.5916C20.8638 40.0438 20.8556 40.4961 20.8516 40.9483C19.7446 40.9823 18.6198 41.5528 17.6749 42.0666C16.7122 42.5902 15.6924 43.0683 15.1271 44.04C15.0571 44.1608 15.2306 44.3058 15.3275 44.194C16.6405 42.6655 18.9578 42.1534 20.8459 41.5755C20.8355 42.689 20.8201 43.8028 20.7994 44.9169C19.5182 45.2021 18.0814 45.8375 18.6646 47.4454C19.1533 48.7931 20.9916 49.405 22.2818 49.5589C22.4447 49.5776 22.5384 49.3361 22.4162 49.2348C21.7076 48.6618 20.7717 48.5864 20.011 48.1002C19.3634 47.6853 18.8772 46.9713 19.2779 46.2176C19.5589 45.6924 20.2284 45.4436 20.7913 45.2232C20.7913 45.3691 20.7872 45.515 20.7839 45.6608C20.7772 45.7592 20.8045 45.8568 20.8612 45.9376C20.918 46.0184 21.0008 46.0774 21.0959 46.1049C21.6188 46.8586 22.3633 47.4275 23.2088 47.8757C23.9874 52.5477 32.0055 52.5072 36.4324 52.2519C38.9273 52.3208 41.4441 52.5267 43.8958 52.3135C48.4123 52.4845 55.0758 52.1514 55.8569 47.9632C56.7944 47.4575 57.5959 46.8286 58.1278 46.0312C58.1717 45.9952 58.2078 45.9507 58.234 45.9004C58.2602 45.8501 58.2759 45.7951 58.2801 45.7386C58.2849 45.7214 58.2882 45.7038 58.2899 45.686C58.2899 45.6778 58.294 45.673 58.294 45.6649V45.5911C59.2184 45.6422 60.3042 45.8164 60.112 46.9494C59.9393 47.9648 58.8275 48.2542 58.0692 48.721C58.0321 48.744 58.0034 48.7783 57.9874 48.8188C57.9714 48.8592 57.969 48.9038 57.9804 48.9458C57.9918 48.9878 58.0165 49.025 58.0508 49.0519C58.0851 49.0789 58.1273 49.0941 58.171 49.0954C59.4913 49.0954 60.9281 48.0191 60.7929 46.5961C60.6634 45.2451 59.4017 45.0773 58.2826 45.1681C58.2826 45.0595 58.2769 44.9501 58.2744 44.8439C59.4481 44.0335 60.8483 43.2442 62.1246 42.3495C62.3559 42.4394 62.5913 42.4678 62.8333 42.548C63.2101 42.6816 63.5563 42.8888 63.8514 43.1575C64.3035 43.557 64.6301 44.0886 65.1074 44.4541C65.2434 44.5587 65.4332 44.386 65.3908 44.2369C65.1123 43.3503 64.0241 42.0075 62.9212 41.7538C63.0491 41.6525 63.1786 41.5536 63.3016 41.4491C65.8543 42.7984 67.265 44.3245 67.265 45.814C67.265 49.9933 56.217 54.4668 39.7695 54.4668C23.322 54.4668 12.2747 49.9893 12.2747 45.8099ZM23.9711 54.7837C23.3195 54.4198 22.6875 54.0486 22.0554 53.6758C26.9083 54.9668 33.0318 55.7294 39.7711 55.7294C47.7827 55.7294 54.93 54.654 60.0981 52.893C59.2991 53.406 58.5009 53.9182 57.6758 54.3987C55.1736 55.8575 52.1827 55.9053 49.3522 56.1371C44.5507 56.5285 39.7703 56.2813 34.9801 56.3891C34.1061 56.3624 33.2322 56.3267 32.3549 56.2692C29.5514 56.0812 26.4839 56.1881 23.9711 54.7837Z" fill="#724B09"/>
<path d="M29.1416 52.6729C23.9385 50.9876 17.3639 50.2212 13.695 45.8476C13.5633 45.6911 13.3486 45.8909 13.4267 46.0514C14.4144 48.0962 16.2323 49.2141 18.3005 50.08C21.68 51.4948 25.4027 52.453 28.9627 53.3109C29.3838 53.412 29.5505 52.8053 29.1416 52.6729Z" fill="#724B09"/>
<path d="M53.3235 52.4123C57.4692 51.691 64.8452 50.7484 66.1255 45.6826C66.134 45.6465 66.1297 45.6085 66.1134 45.5754C66.0971 45.5423 66.0698 45.5162 66.0365 45.5018C66.0031 45.4874 65.9659 45.4856 65.9314 45.4968C65.8969 45.508 65.8674 45.5314 65.8482 45.5628C63.2536 50.018 57.6898 50.6977 53.133 51.7018C52.6757 51.8025 52.8792 52.4897 53.3235 52.4123Z" fill="#724B09"/>
<path d="M38.9811 15.8829C38.8497 17.3686 37.5503 18.0661 37.9812 19.6735C38.0515 19.9373 38.5092 19.9675 38.5594 19.6735C38.9442 17.4192 40.8427 15.9319 39.3668 13.7993C38.0281 11.8701 36.3237 11.6005 36.2467 8.91338C36.1689 6.19681 37.8272 3.7514 39.2588 1.54939C39.4262 1.28803 39.0187 1.06668 38.8405 1.31008C36.7387 4.17694 34.3407 7.78705 35.9037 11.4462C36.4408 12.6999 39.0848 14.7043 38.9811 15.8829Z" fill="#724B09"/>
<path d="M41.561 12.3239C41.8408 13.252 41.6883 14.0665 41.2314 14.9183C40.7106 15.8918 40.2128 16.6982 41.0238 17.6479C41.2947 17.966 41.7359 17.6264 41.66 17.2502C41.3438 15.6953 42.785 14.7974 42.6183 13.2997C42.439 11.6852 41.1302 10.6123 40.9204 8.94048C40.8877 8.67881 40.5179 8.65813 40.5231 8.94048C40.535 9.59186 40.5923 10.1478 40.814 10.7698C41.0045 11.3162 41.3914 11.7711 41.561 12.3239Z" fill="#724B09"/>
<path d="M33.3433 6.20259C33.1149 7.19276 32.6222 8.06254 32.6197 9.10185C32.614 11.3754 34.5065 12.7227 35.0008 14.857C35.0628 15.1256 35.4976 15.1371 35.5522 14.857C35.7643 13.7783 35.8182 13.6383 35.2708 12.6506C34.7512 11.7128 34.0921 11.1764 33.7968 10.0781C33.411 8.63502 33.8376 7.83649 34.0954 6.41061C34.5154 4.08957 34.1769 2.12806 32.9028 0.128879C32.7135 -0.167599 32.2502 0.0993949 32.4296 0.40652C33.5219 2.26729 33.8327 4.08465 33.3433 6.20259Z" fill="#724B09"/>
<path d="M34.5226 21.0529C34.5368 21.3698 34.9217 21.5336 35.065 21.2224C35.9832 19.2349 34.8574 16.3483 33.6772 14.8488C33.4724 14.5892 33.1652 14.9659 33.3495 15.2288C33.9474 16.0664 34.3544 17.0646 34.5332 18.1319C34.6999 19.149 34.4788 20.053 34.5226 21.0529Z" fill="#724B09"/>
<path d="M60.2115 56.7503C59.8914 58.0068 60.2934 59.63 61.3782 60.4012C61.3831 60.4012 61.3889 60.4012 61.3946 60.4086C61.4633 60.5872 61.5619 60.7529 61.6861 60.8987C62.3615 61.7018 63.6183 61.7974 64.5837 61.7459C67.6949 61.5899 70.6875 59.8669 73.147 58.077C75.1063 56.6523 76.2903 54.2628 76.0373 51.825C75.8956 50.4583 74.7444 48.2027 73.2658 48.7484C73.2465 48.7149 73.2204 48.6857 73.1891 48.6629C73.1577 48.6401 73.1219 48.6241 73.084 48.6161C71.6823 48.2656 69.94 48.7885 68.6406 49.2999C66.6371 50.0874 64.9046 51.4337 63.3048 52.8437C62.1118 53.8992 60.6225 55.132 60.2115 56.7503ZM68.2918 50.143C69.4381 49.6144 71.2524 48.9698 72.6091 49.1733C72.587 49.1937 72.5657 49.2108 72.5436 49.2321C72.411 49.3612 72.5878 49.5409 72.7328 49.4396C74.2114 48.4102 75.1743 50.3872 75.2906 51.544C75.3719 52.3934 75.2885 53.2504 75.0449 54.0683C74.5463 55.7659 73.3902 56.9219 71.9566 57.8777C70.4566 58.8768 68.8625 59.804 67.1423 60.3702C65.6513 60.8603 61.8007 61.701 62.1994 59.0631C62.2314 58.8523 61.9358 58.7224 61.7901 58.867C61.5869 59.0622 61.4377 59.3065 61.3569 59.5761C60.6962 58.4103 60.4858 57.1653 61.2701 55.9072C62.0545 54.6492 63.317 53.6411 64.4461 52.6975C65.6284 51.7058 66.8868 50.7924 68.2918 50.143Z" fill="#724B09"/>
<path d="M68.2734 58.3115C68.2579 58.3206 68.2464 58.3353 68.2413 58.3527C68.2363 58.3701 68.238 58.3887 68.2461 58.4049C68.2543 58.421 68.2683 58.4334 68.2852 58.4394C68.3021 58.4455 68.3207 58.4448 68.3371 58.4375C70.072 57.7622 71.5397 56.7081 72.786 55.3172C73.7037 54.2928 74.7227 53.1637 74.8649 51.7399C74.8894 51.4928 74.5201 51.4253 74.4449 51.6575C73.5075 54.5423 70.734 56.7592 68.2734 58.3115Z" fill="#724B09"/>
<path d="M70.3216 50.6102C70.3258 50.6112 70.3302 50.6111 70.3342 50.6098C70.3383 50.6086 70.3418 50.6062 70.3441 50.6032C70.3464 50.6001 70.3475 50.5965 70.3472 50.5929C70.3469 50.5892 70.3452 50.5858 70.3424 50.5831C70.1887 50.4597 69.9836 50.3892 69.7947 50.313C69.7478 50.2943 69.7233 50.3589 69.7693 50.3776C69.9545 50.4506 70.1288 50.552 70.3216 50.6102Z" fill="#724B09"/>
<path d="M68.7271 56.6281C68.8082 56.6633 68.8883 56.5714 68.8072 56.5339C68.6502 56.4482 68.477 56.3813 68.2937 56.3356C68.2556 56.3287 68.2196 56.3624 68.2496 56.3869C68.3913 56.4859 68.5524 56.5673 68.7271 56.6281Z" fill="#724B09"/>
<path d="M67.5674 56.2033C67.4231 56.2079 67.2788 56.1932 67.1397 56.1595C67.0113 56.1278 66.8956 56.0706 66.7692 56.0347C66.7633 56.033 66.7569 56.0331 66.751 56.0349C66.7451 56.0367 66.7401 56.0401 66.7367 56.0446C66.7333 56.0491 66.7318 56.0545 66.7323 56.0599C66.7328 56.0652 66.7354 56.0703 66.7396 56.0743C66.9245 56.2678 67.2802 56.3317 67.5575 56.3347C67.6563 56.3353 67.6641 56.2008 67.5674 56.2033Z" fill="#724B09"/>
<path d="M64.4327 54.5556C64.5794 54.6326 64.722 54.7278 64.8638 54.8229C64.9108 54.8547 64.9506 54.7403 64.9036 54.7097C64.7666 54.6145 64.6272 54.5273 64.4886 54.4378C64.3558 54.3325 64.2106 54.2608 64.0599 54.226C64.0518 54.2255 64.0438 54.2287 64.0371 54.2351C64.0304 54.2415 64.0254 54.2508 64.0228 54.2616C64.0202 54.2723 64.0202 54.284 64.0228 54.2947C64.0254 54.3055 64.0305 54.3148 64.0372 54.3211C64.1614 54.4223 64.2943 54.5011 64.4327 54.5556Z" fill="#724B09"/>
<path d="M66.349 57.834C66.4257 57.8747 66.4667 57.727 66.39 57.682C66.2548 57.6114 66.1214 57.5386 65.9888 57.4604C65.8622 57.3718 65.729 57.298 65.5911 57.2399C65.5501 57.2281 65.5039 57.2924 65.5405 57.3341C65.6513 57.4372 65.7727 57.5218 65.9016 57.5857C66.0493 57.6727 66.1984 57.7555 66.349 57.834Z" fill="#724B09"/>
<path d="M62.0482 55.9233C62.3592 55.8979 62.5824 55.8554 62.8351 55.8914C62.1336 56.4209 61.6437 57.0921 61.6109 58.0415C61.6109 58.1372 61.7455 58.1953 61.798 58.1029C61.944 57.8467 62.0909 57.6118 62.2411 57.3916C62.3365 57.3889 62.4321 57.3944 62.5266 57.408C62.383 57.6506 62.271 57.9105 62.1935 58.1814C62.1114 58.4736 62.5094 58.5907 62.6325 58.3271C62.748 58.0798 62.8956 57.8486 63.0714 57.6396C63.3463 57.8336 63.6007 58.066 63.8641 58.2764C64.2628 58.5947 64.6747 58.6856 65.1835 58.7445C65.2188 58.7486 65.2253 58.6979 65.195 58.6864C64.8389 58.5497 64.4819 58.5612 64.1488 58.341C63.8501 58.143 63.5793 57.8851 63.2971 57.6633C63.2446 57.6216 63.1937 57.5815 63.1453 57.5512C63.4779 57.1895 63.8656 56.8824 64.294 56.6411C64.6378 56.849 64.9816 57.056 65.3312 57.2574C65.396 57.295 65.46 57.1985 65.3952 57.1592C65.067 56.9622 64.7387 56.7677 64.4105 56.5756C64.9931 56.2482 65.6339 55.9814 66.2551 55.7056L66.3002 55.7449C66.3051 55.7499 66.3111 55.7539 66.3177 55.7566C66.3242 55.7592 66.3313 55.7605 66.3384 55.7603C66.3455 55.76 66.3524 55.7583 66.3588 55.7553C66.3652 55.7522 66.3709 55.7478 66.3755 55.7424C66.3801 55.737 66.3835 55.7308 66.3855 55.724C66.3875 55.7172 66.3881 55.7101 66.3872 55.7031C66.3863 55.6961 66.3839 55.6893 66.3802 55.6833C66.3766 55.6772 66.3717 55.672 66.3659 55.6679L66.356 55.6606C66.7615 55.4848 67.1556 55.2839 67.5359 55.059C67.5983 55.1138 67.6615 55.1679 67.7271 55.2227C67.7107 55.235 67.6959 55.2489 67.6787 55.2612C67.5966 55.3193 67.6943 55.4584 67.7788 55.4052C67.8124 55.3839 67.8453 55.3594 67.8789 55.3381C68.1251 55.5157 68.3967 55.6524 68.6994 55.6655C68.7355 55.6655 68.7495 55.6106 68.7117 55.6016C68.4484 55.5413 68.1995 55.4301 67.979 55.2743C68.4711 54.949 68.9407 54.5911 69.3846 54.2029L69.4748 54.2847C69.7866 54.5884 70.1263 54.9289 70.5079 55.1441C70.5563 55.1711 70.6154 55.1106 70.5735 55.0672C70.3175 54.7996 70.0082 54.5818 69.7325 54.3306C69.6562 54.2618 69.5684 54.189 69.4863 54.112C69.7259 53.8992 69.9589 53.6783 70.1854 53.4491C70.1977 53.4581 70.2117 53.4646 70.224 53.4736C70.4545 53.6521 70.4513 53.9246 70.6744 54.0908C70.857 54.2106 71.076 54.2625 71.2931 54.2373C71.3456 54.2324 71.3465 54.1497 71.2989 54.1366C71.2381 54.1194 70.9583 54.0646 70.9452 54.0605C70.6285 53.9574 70.6753 53.8616 70.5456 53.6382C70.4787 53.5252 70.3848 53.4305 70.2724 53.3623C70.5735 53.0521 70.864 52.7321 71.1339 52.4015C71.2608 52.4506 71.391 52.4906 71.5237 52.521C71.5284 52.5224 71.5334 52.5228 71.5383 52.5222C71.5432 52.5216 71.548 52.52 71.5522 52.5174C71.5564 52.5149 71.5601 52.5114 71.5629 52.5074C71.5657 52.5033 71.5677 52.4987 71.5686 52.4939C71.5695 52.489 71.5694 52.484 71.5683 52.4792C71.5672 52.4744 71.565 52.4699 71.562 52.466C71.559 52.462 71.5552 52.4588 71.5509 52.4564C71.5465 52.454 71.5417 52.4526 71.5368 52.4522C71.4088 52.4389 71.2829 52.41 71.1618 52.3663C71.4195 52.0479 71.6542 51.723 71.8798 51.3948C72.0647 51.4059 72.2468 51.4454 72.4197 51.5118C72.4255 51.5139 72.4318 51.514 72.4376 51.5121C72.4434 51.5101 72.4484 51.5063 72.4517 51.5011C72.4551 51.496 72.4566 51.4899 72.456 51.4838C72.4554 51.4777 72.4527 51.472 72.4484 51.4676C72.318 51.3366 72.1399 51.2965 71.961 51.2785C71.9725 51.2605 71.9865 51.2425 71.998 51.2245C72.0726 51.1108 71.9159 50.9651 71.8133 51.0666C71.7526 51.1279 71.6952 51.191 71.6361 51.2523C71.5942 51.2523 71.554 51.2433 71.513 51.2384C71.7173 51.0174 71.9233 50.7981 72.1366 50.5837C72.3828 50.3381 72.1678 49.9756 71.8412 50.0107C70.8656 50.1024 70.347 50.8243 69.7792 51.5519C69.4625 51.3678 69.1335 51.2319 68.7651 51.2491C68.7557 51.2484 68.7465 51.2515 68.7394 51.2576C68.7323 51.2638 68.728 51.2725 68.7273 51.2818C68.7267 51.2911 68.7298 51.3004 68.7359 51.3074C68.7421 51.3145 68.7508 51.3188 68.7602 51.3195C69.0881 51.3829 69.4044 51.4961 69.698 51.655C69.4754 51.9393 69.2475 52.2192 69.0145 52.4948C68.9718 52.4506 68.9325 52.4039 68.889 52.354C68.8455 52.3041 68.7823 52.363 68.8127 52.4064C68.8545 52.4661 68.8947 52.5234 68.9415 52.5783C68.3573 53.2576 67.7263 53.8935 66.9944 54.4132C66.9386 54.365 66.8811 54.3191 66.8237 54.2733C67.2996 54.0032 67.7263 53.6725 68.0381 53.2093C68.0963 53.1209 67.9675 53.0014 67.892 53.0849C67.5532 53.4606 67.0715 53.7667 66.5218 54.0449C66.1925 53.808 65.8476 53.5934 65.4895 53.4024C65.4395 53.3762 65.3911 53.4491 65.4411 53.4769C65.7745 53.664 66.0945 53.8741 66.3987 54.1055C65.9671 54.3183 65.501 54.5147 65.0333 54.7202C64.9967 54.6968 64.9565 54.6794 64.9143 54.6686C64.9076 54.6666 64.9004 54.6669 64.8938 54.6693C64.8872 54.6717 64.8815 54.6762 64.8776 54.682C64.8738 54.6879 64.8719 54.6949 64.8723 54.7019C64.8727 54.7089 64.8754 54.7156 64.8799 54.721C64.8958 54.737 64.9131 54.7515 64.9316 54.7644C64.2251 55.0737 63.5244 55.3995 62.9492 55.8095C62.6792 55.7359 62.4322 55.7563 62.0244 55.8095C61.9473 55.8177 61.9744 55.929 62.0482 55.9233ZM71.4236 51.3399C71.4621 51.3465 71.4999 51.3538 71.5376 51.3587C71.2783 51.6313 71.0256 51.9079 70.7803 52.1854L70.6982 52.1412C70.94 51.8722 71.181 51.6048 71.4211 51.3391L71.4236 51.3399ZM70.6638 52.1846C70.6909 52.1985 70.7171 52.2132 70.7458 52.2263C70.4718 52.5365 70.201 52.8467 69.9253 53.1528L69.8309 53.098C70.1127 52.7973 70.3903 52.4926 70.6638 52.1838V52.1846ZM69.7308 53.1986L69.835 53.2494C69.6425 53.4633 69.4456 53.6731 69.2443 53.8788C69.2123 53.846 69.1819 53.8125 69.1532 53.7773C69.3523 53.5912 69.5448 53.3983 69.7308 53.1986ZM67.7845 54.9043C68.2387 54.591 68.6672 54.2423 69.0662 53.8616C69.0949 53.8976 69.1261 53.932 69.1573 53.9655C68.7421 54.392 68.2962 54.7876 67.8231 55.149C67.7616 55.0999 67.7008 55.0484 67.641 54.9952C67.6885 54.9682 67.7386 54.9395 67.7845 54.9076V54.9043ZM65.0514 55.0901C65.1277 55.0549 65.2056 55.0205 65.2844 54.9853C65.3574 55.0402 65.428 55.0991 65.4969 55.1589C65.5006 55.1626 65.505 55.1656 65.5099 55.1675C65.5148 55.1695 65.52 55.1704 65.5253 55.1702C65.5306 55.1701 65.5358 55.1688 65.5405 55.1665C65.5452 55.1642 65.5494 55.1609 65.5528 55.1569C65.5562 55.1529 65.5588 55.1482 65.5602 55.1431C65.5617 55.1381 65.5621 55.1328 65.5614 55.1276C65.5607 55.1223 65.5589 55.1173 65.5561 55.1129C65.5533 55.1084 65.5497 55.1045 65.5453 55.1016C65.4797 55.0525 65.4116 55.0066 65.3451 54.9592C65.7956 54.7619 66.2641 54.5728 66.6998 54.3388L66.8803 54.4844C66.7704 54.5606 66.6604 54.6359 66.5455 54.7062C65.643 55.2571 64.5952 55.6246 63.7377 56.1885C63.6491 56.1386 63.5613 56.087 63.4719 56.0371C63.9579 55.6595 64.4883 55.3426 65.0514 55.0934V55.0901ZM63.4054 56.0911C63.4874 56.1377 63.5736 56.1885 63.6565 56.2425C63.2278 56.5237 62.8619 56.8901 62.5816 57.3188C62.4878 57.306 62.3931 57.3013 62.2985 57.3049C62.6106 56.8531 62.983 56.4458 63.4054 56.0944V56.0911Z" fill="#724B09"/>
<path d="M64.3406 57.3485C64.5124 57.516 64.6842 57.7263 64.8818 57.8376C64.9135 57.8556 64.9376 57.7982 64.917 57.7679C64.7735 57.5565 64.5665 57.4103 64.3904 57.2495C64.3423 57.2057 64.2951 57.3035 64.3406 57.3485Z" fill="#724B09"/>
<path d="M66.758 57.0513C66.9124 57.0691 67.0641 57.1312 67.207 57.2352C67.335 57.3252 67.4586 57.4888 67.5924 57.5382C67.6177 57.5484 67.6474 57.5065 67.6315 57.4596C67.4774 57.0044 67.0298 56.9258 66.7637 56.9385C66.7558 56.9389 66.7482 56.9444 66.7424 56.954C66.7366 56.9635 66.733 56.9765 66.7323 56.9904C66.7316 57.0043 66.7338 57.0182 66.7385 57.0294C66.7433 57.0406 66.7502 57.0484 66.758 57.0513Z" fill="#724B09"/>
<path d="M67.1539 52.1402C67.0984 52.0755 66.9937 52.1609 67.0493 52.2231C67.2446 52.4503 67.5205 52.5664 67.8168 52.6592C67.9871 52.7131 68.1612 52.7579 68.3297 52.8151C68.4981 52.8723 68.6352 52.9693 68.799 53.0199C68.8052 53.0214 68.8116 53.0212 68.8177 53.0195C68.8238 53.0178 68.8291 53.0146 68.8332 53.0103C68.8373 53.0059 68.8399 53.0006 68.8408 52.9949C68.8416 52.9893 68.8406 52.9836 68.8379 52.9784C68.7027 52.7745 68.3537 52.6882 68.1186 52.6161C67.7612 52.5083 67.3955 52.4196 67.1539 52.1402Z" fill="#724B09"/>
<path d="M72.4563 52.3531C72.1877 52.2355 71.8853 52.1298 71.5837 52.1171C71.5754 52.1171 71.5674 52.1201 71.5615 52.1254C71.5556 52.1307 71.5523 52.1379 71.5523 52.1454C71.5523 52.1529 71.5556 52.1601 71.5615 52.1654C71.5674 52.1707 71.5754 52.1737 71.5837 52.1737C71.8886 52.1931 72.1621 52.336 72.4158 52.4774C72.5951 52.5771 72.7884 52.6263 72.9744 52.7096C72.9829 52.7157 72.9933 52.7192 73.0042 52.7196C73.015 52.72 73.0258 52.7174 73.0349 52.7121C73.044 52.7067 73.051 52.699 73.055 52.6899C73.059 52.6807 73.0597 52.6707 73.057 52.6612C73.0339 52.5749 73.0008 52.5541 72.9099 52.5124C72.757 52.4551 72.6025 52.4171 72.4563 52.3531Z" fill="#724B09"/>
<path d="M72.7329 53.2865C72.7404 53.2819 72.7465 53.2755 72.7508 53.2677C72.7551 53.2599 72.7573 53.251 72.7573 53.2421C72.7573 53.2331 72.7551 53.2243 72.7508 53.2165C72.7465 53.2087 72.7404 53.2022 72.7329 53.1977C72.6254 53.123 72.4838 53.1417 72.3593 53.1346C72.2347 53.1275 72.0658 53.1541 71.9754 53.0457C71.9148 52.9747 71.8133 53.0715 71.8704 53.1444C71.9545 53.2369 72.0698 53.292 72.1921 53.298C72.2825 53.3096 72.3755 53.3087 72.4659 53.3131C72.5555 53.3313 72.6483 53.322 72.7329 53.2865Z" fill="#724B09"/>
<path d="M73.032 50.6025C73.0385 50.6002 73.0444 50.595 73.049 50.5876C73.0536 50.5801 73.0567 50.5708 73.058 50.5606C73.0592 50.5505 73.0585 50.54 73.056 50.5305C73.0535 50.5209 73.0492 50.5127 73.0437 50.5069C72.9005 50.3551 72.6824 50.3794 72.5168 50.3142C72.5107 50.3106 72.5041 50.3091 72.4976 50.3098C72.4911 50.3106 72.4847 50.3135 72.479 50.3185C72.4733 50.3235 72.4684 50.3303 72.4645 50.3386C72.4607 50.3469 72.4581 50.3563 72.4568 50.3663C72.4556 50.3763 72.4558 50.3867 72.4574 50.3965C72.459 50.4064 72.462 50.4156 72.4661 50.4235C72.4703 50.4314 72.4755 50.4378 72.4813 50.4423C72.4872 50.4467 72.4937 50.4491 72.5002 50.4492C72.6677 50.4856 72.8616 50.6495 73.032 50.6025Z" fill="#724B09"/>
<path d="M71.8212 49.8697C71.7458 49.827 71.6732 49.7746 71.6043 49.7132C71.5972 49.7077 71.589 49.7058 71.581 49.708C71.573 49.7101 71.5658 49.7161 71.5606 49.725C71.5553 49.7338 71.5524 49.745 71.5523 49.7566C71.5522 49.7682 71.5549 49.7794 71.5599 49.7885C71.6202 49.8909 71.7003 49.9657 71.7902 50.0035C71.8497 50.0357 71.8815 49.8984 71.8212 49.8697Z" fill="#724B09"/>
<path d="M71.0638 49.92C71.1162 49.9371 71.1686 49.9929 71.2209 50.0079C71.2592 50.0208 71.2618 49.7677 71.2246 49.7698C71.1686 49.7924 71.1121 49.7859 71.0565 49.7505C71.0255 49.7146 70.9933 49.7008 70.9612 49.7098C70.9583 49.7128 70.9558 49.7191 70.9538 49.7279C70.9519 49.7367 70.9505 49.7476 70.9501 49.7593C70.9496 49.7711 70.9499 49.7832 70.951 49.7942C70.9522 49.8052 70.954 49.8146 70.9565 49.8213C70.99 49.8868 71.0267 49.9205 71.0638 49.92Z" fill="#724B09"/>
<path d="M66.1999 52.1066C67.1913 51.2241 68.3092 50.7743 69.4132 50.136C69.4256 50.1279 69.435 50.1153 69.4398 50.1003C69.4447 50.0853 69.4447 50.0688 69.4399 50.0538C69.4351 50.0388 69.4257 50.0261 69.4134 50.0179C69.4012 50.0098 69.3867 50.0067 69.3726 50.0092C68.152 50.256 67.0724 51.1693 66.1439 52.0406C66.1033 52.0749 66.1585 52.1434 66.1999 52.1066Z" fill="#724B09"/>
<path d="M67.2485 59.0472C66.8222 59.1557 66.4312 59.4098 66.0204 59.5774C65.4896 59.7934 64.943 59.9594 64.3866 60.0736C64.282 60.0946 64.3129 60.2654 64.4204 60.2501C65.3474 60.1084 66.5851 59.8931 67.3126 59.1848C67.3238 59.1727 67.3312 59.157 67.3337 59.14C67.3363 59.1229 67.3338 59.1055 67.3266 59.0901C67.3195 59.0747 67.308 59.0623 67.294 59.0545C67.2799 59.0468 67.264 59.0443 67.2485 59.0472Z" fill="#724B09"/>
<path d="M59.4057 60.5961C58.6067 58.6291 56.7064 58.2292 54.8068 58.3389C53.1674 54.6691 46.3747 59.1517 44.9178 61.0333C43.4609 62.915 42.5063 64.552 43.1242 66.9156C43.478 68.2624 44.2248 70.0856 45.4811 70.9853C45.512 71.0273 45.5488 71.0645 45.5904 71.0959C47.5926 72.5508 50.6384 71.977 52.8307 71.2658C55.1077 70.5285 57.2787 69.0118 58.5978 67.0245C59.7432 65.3055 60.1981 62.5354 59.4057 60.5961ZM54.4326 58.8989H54.497C54.4891 58.9074 54.482 58.9167 54.4759 58.9266C54.14 59.5768 53.8685 60.227 53.4763 60.8391C53.297 60.8391 53.1193 60.8445 52.9432 60.8553C53.416 60.1661 53.862 59.4671 54.4392 58.8989H54.4326ZM51.9053 62.394C52.0041 62.4436 52.1072 62.4839 52.2135 62.5143L51.6958 63.1353C51.6859 63.148 51.6782 63.1623 51.673 63.1775C51.4191 63.1164 51.1565 63.0999 50.8969 63.1288C51.2556 62.8429 51.5957 62.5344 51.9151 62.2054C52.26 61.8236 52.5751 61.416 52.8576 60.9862C53.0328 60.9862 53.2065 60.9862 53.3785 61C53.3695 61.013 53.363 61.0268 53.3541 61.0398C53.0516 61.4747 52.7222 61.8925 52.3847 62.3038C52.2422 62.2627 52.0945 62.2422 51.9461 62.2428C51.9291 62.2443 51.913 62.251 51.9001 62.2621C51.8872 62.2731 51.878 62.288 51.874 62.3045C51.8699 62.321 51.8712 62.3383 51.8775 62.3541C51.8839 62.3699 51.895 62.3832 51.9094 62.3924L51.9053 62.394ZM56.7154 67.7983C55.468 69.0322 53.4038 70.0742 51.7195 70.466C50.7852 70.6838 49.802 70.9032 48.8392 70.9154C47.9628 70.926 47.2299 70.6139 46.4374 70.3969C45.473 69.4703 44.7384 68.7225 44.2403 67.2619C44.6854 67.4464 45.23 67.4098 45.7216 67.3952C45.7767 67.3954 45.8308 67.3812 45.8786 67.3539C45.9264 67.3267 45.9662 67.2873 45.9939 67.2399C46.0346 67.1654 46.046 67.0785 46.0257 66.9961C46.0069 66.93 45.967 66.8718 45.9122 66.8302C45.8574 66.7886 45.7905 66.7658 45.7216 66.7653C45.4021 66.7457 45.0923 66.8506 44.7735 66.8295C44.4939 66.8108 44.2705 66.684 44.0398 66.5474C43.7137 65.0332 44.1033 63.7693 45.0368 62.3956C45.9507 61.052 46.9478 60.0011 48.4022 59.2525C49.8004 58.5332 52.6521 57.1498 54.056 58.4519C53.6484 58.6283 53.4576 58.79 53.2538 59.0631C53.0975 59.0243 52.9391 58.9947 52.7793 58.9745C52.8527 58.9396 52.9277 58.9062 53.0059 58.8778C53.0317 58.87 53.0538 58.8534 53.0684 58.8309C53.083 58.8083 53.089 58.7814 53.0855 58.7548C53.082 58.7282 53.0691 58.7038 53.0491 58.6858C53.0292 58.6678 53.0035 58.6575 52.9766 58.6567C52.7315 58.6364 52.4872 58.7048 52.2885 58.8493C52.035 58.7534 51.7831 58.6388 51.5238 58.6738C51.4676 58.6811 51.4423 58.7664 51.5091 58.7811C51.7284 58.8306 51.9575 58.8745 52.1882 58.9201C51.9192 59.1224 51.682 59.3996 51.4667 59.6142C51.3771 59.7028 51.2923 59.7954 51.2034 59.8849C50.7371 59.4784 50.1346 59.4866 49.5387 59.4167C49.4637 59.4085 49.4449 59.5386 49.5207 59.55C49.9919 59.6183 50.7656 59.6191 51.1757 59.9133C50.9376 60.1571 50.6988 60.401 50.4656 60.6448C50.1868 60.5635 49.9047 60.4823 49.6251 60.4067C49.6163 60.4043 49.6071 60.4036 49.5981 60.4047C49.5891 60.4059 49.5803 60.4088 49.5724 60.4133C49.5645 60.4178 49.5576 60.4238 49.552 60.4309C49.5464 60.4381 49.5423 60.4463 49.5399 60.455C49.5375 60.4638 49.5368 60.4729 49.538 60.4819C49.5391 60.4909 49.542 60.4996 49.5465 60.5075C49.551 60.5154 49.557 60.5223 49.5642 60.5279C49.5714 60.5335 49.5796 60.5376 49.5884 60.54C49.8411 60.6164 50.0996 60.6855 50.3539 60.7643C50.0669 61.0699 49.7813 61.3774 49.4971 61.6868C49.4835 61.7004 49.4758 61.7188 49.4758 61.738C49.4758 61.7573 49.4835 61.7757 49.4971 61.7893C49.5107 61.8028 49.5292 61.8105 49.5484 61.8105C49.5677 61.8105 49.5862 61.8028 49.5998 61.7893C49.943 61.4788 50.2854 61.1699 50.6246 60.857C50.6996 60.883 50.773 60.9114 50.8463 60.9382C50.837 60.9436 50.8285 60.9501 50.8211 60.9578C50.3123 61.5796 49.7889 62.177 49.1327 62.6508C48.6639 62.989 48.1462 63.2556 47.6897 63.6108C46.9396 64.1935 46.2605 65.021 46.2956 66.0134C46.3062 66.3076 46.7741 66.4019 46.8345 66.0866C47.079 64.808 47.9179 64.1805 48.8905 63.4181C49.74 62.7516 50.4094 61.9981 51.0444 61.1293C51.0546 61.116 51.0617 61.1007 51.0651 61.0844C51.0684 61.068 51.0681 61.0511 51.064 61.035C51.0836 61.0447 51.1056 61.052 51.1251 61.0618C51.1336 61.0662 51.1434 61.0674 51.1527 61.0654C51.162 61.0633 51.1703 61.058 51.1762 61.0505C51.182 61.0429 51.185 61.0336 51.1846 61.0241C51.1842 61.0145 51.1805 61.0055 51.1741 60.9984C51.0561 60.8786 50.9118 60.7879 50.7526 60.7334C50.9107 60.5863 51.0713 60.4408 51.2262 60.288C51.6926 59.8296 52.1141 59.324 52.6855 59.0192C52.8551 59.0574 53.0239 59.1005 53.1886 59.1468C53.0997 59.2728 53.0051 59.4216 52.8853 59.6036C52.1344 60.7497 51.0363 61.7551 49.9952 62.6297C49.4286 63.1068 48.6174 63.6205 48.0264 64.226C48.0174 64.222 48.0076 64.2187 47.9986 64.2139C47.9933 64.2109 47.9874 64.209 47.9813 64.2082C47.9752 64.2075 47.969 64.208 47.9631 64.2097C47.9572 64.2113 47.9517 64.2141 47.9469 64.2179C47.9421 64.2217 47.938 64.2264 47.9351 64.2317C47.9321 64.2371 47.9301 64.2429 47.9294 64.249C47.9287 64.2551 47.9292 64.2613 47.9309 64.2671C47.9325 64.273 47.9353 64.2785 47.9391 64.2833C47.9429 64.2881 47.9476 64.2922 47.953 64.2951L47.9603 64.2992C47.313 64.9917 46.9698 65.8029 47.6008 66.8132C47.6477 66.8889 47.7178 66.9474 47.8008 66.9801C47.8837 67.0128 47.975 67.018 48.0612 66.9948C48.1473 66.9716 48.2236 66.9213 48.2787 66.8514C48.3338 66.7815 48.3649 66.6957 48.3671 66.6068C48.3907 66.1561 48.5181 65.7169 48.7397 65.3233C48.9191 65.3737 49.1025 65.4111 49.2819 65.4615C49.5099 65.531 49.7341 65.6124 49.9536 65.7054C50.0637 65.7484 50.1118 65.5712 50.0025 65.5282C49.6239 65.3674 49.2281 65.2504 48.8229 65.1795C49.0615 64.8064 49.3482 64.4662 49.6756 64.1675C49.9691 64.2163 50.2642 64.3008 50.5577 64.3561C50.596 64.3634 50.6123 64.3049 50.574 64.2976C50.3042 64.2464 50.0629 64.1293 49.8069 64.048C50.0833 63.7969 50.3776 63.5563 50.6719 63.3165C51.2474 63.2352 51.8385 63.245 52.2453 63.705C52.423 63.9058 52.5339 64.0115 52.829 64.0017C52.8384 64.0006 52.8471 63.9964 52.8539 63.9898C52.8606 63.9832 52.8649 63.9745 52.8661 63.9652C52.8673 63.9559 52.8654 63.9464 52.8606 63.9383C52.8558 63.9302 52.8484 63.9239 52.8396 63.9204C52.5347 63.8009 52.4067 63.549 52.1719 63.3694C52.1005 63.3191 52.0219 63.2799 51.9388 63.2531C52.1475 63.0442 52.366 62.8264 52.5861 62.5988C52.8527 62.6484 53.1266 62.6801 53.3687 62.7378C53.4927 62.7662 53.5448 62.5752 53.4209 62.5484C53.2057 62.5037 52.9921 62.4509 52.7777 62.3989C53.1876 61.9747 53.5674 61.5225 53.9141 61.0455C54.5663 61.1163 55.2063 61.2349 55.8708 61.3495C55.9189 61.3577 55.9596 61.2869 55.9066 61.2682C55.3253 61.0081 54.6878 60.896 54.0454 60.8618C54.4188 60.3026 54.7082 59.7077 54.8313 59.0818C54.8368 59.0531 54.8358 59.0236 54.8281 58.9954C54.8205 58.9673 54.8065 58.9412 54.7873 58.9192C56.9673 59.0403 58.835 59.754 58.8758 62.3729C58.91 64.4683 58.2073 66.3207 56.7154 67.7983Z" fill="#724B09"/>
<path d="M54.7099 67.6917C56.7104 66.431 57.5698 64.467 57.9915 62.2106C58 62.1798 57.9958 62.147 57.9798 62.1192C57.9638 62.0915 57.9373 62.0712 57.9061 62.0628C57.8749 62.0544 57.8416 62.0586 57.8136 62.0744C57.7855 62.0902 57.765 62.1164 57.7565 62.1472C57.1105 63.9416 56.492 65.6684 54.8475 66.7941C53.0854 68.0005 51.0074 68.4477 48.9511 67.7716C48.6936 67.6892 48.5794 68.0038 48.7136 68.1743C50.0197 69.8344 53.2996 68.5811 54.7099 67.6917Z" fill="#724B09"/>
<path d="M54.9383 62.0572C54.9494 62.0567 54.9599 62.0529 54.9681 62.0463C54.9762 62.0397 54.9814 62.0308 54.9829 62.0211C54.9843 62.0115 54.9817 62.0017 54.9757 61.9935C54.9697 61.9853 54.9607 61.9793 54.9501 61.9764C54.6861 61.9013 54.4274 61.8703 54.173 61.7633C54.1025 61.7332 54.0394 61.8252 54.111 61.8572C54.3601 61.9623 54.6561 62.0722 54.9383 62.0572Z" fill="#724B09"/>
<path d="M54.6943 62.7475C54.8069 62.8859 54.9345 62.9786 55.0685 63.0194C55.14 63.0334 55.2111 63.0541 55.2815 63.0816C55.3582 63.123 55.4306 63.211 55.5059 63.2576C55.5812 63.3043 55.6231 63.0621 55.5407 63.0298C55.4583 62.9974 55.3767 62.9987 55.3 62.9572C55.2233 62.9158 55.158 62.8355 55.087 62.785C54.9681 62.698 54.8408 62.6561 54.7127 62.662C54.7068 62.6598 54.7007 62.6615 54.6954 62.6667C54.6901 62.6719 54.686 62.6804 54.6838 62.6906C54.6816 62.7008 54.6814 62.7121 54.6833 62.7225C54.6853 62.7329 54.6891 62.7418 54.6943 62.7475Z" fill="#724B09"/>
<path d="M54.328 62.962C54.4016 62.9729 54.3949 62.7162 54.328 62.6961C54.2555 62.6558 54.1806 62.6502 54.1073 62.6797C54.1001 62.6861 54.0937 62.6973 54.0889 62.7119C54.084 62.7266 54.0809 62.7443 54.0799 62.7631C54.0788 62.7818 54.0798 62.801 54.0829 62.8184C54.0859 62.8358 54.0908 62.8508 54.097 62.8618C54.1708 62.9307 54.2491 62.9647 54.328 62.962Z" fill="#724B09"/>
<path d="M54.4308 64.8216C54.5755 64.9456 54.7433 65.0306 54.9214 65.0703C54.9721 65.0802 55.0103 65.0023 54.9589 64.9716C54.8509 64.907 54.7327 64.8714 54.6255 64.8059C54.5182 64.7404 54.4455 64.6576 54.3508 64.5921C54.176 64.4728 53.9939 64.4786 53.797 64.4686C53.7757 64.4686 53.7706 64.5067 53.7919 64.51C54.0258 64.5472 54.2465 64.6549 54.4308 64.8216Z" fill="#724B09"/>
<path d="M53.3957 65.6694C53.4806 65.6981 53.5094 65.573 53.4313 65.5408C52.9801 65.3441 52.5124 65.1873 52.0335 65.0724C51.9825 65.0605 51.9426 65.1383 51.9961 65.1611C52.453 65.3506 52.9252 65.5053 53.3957 65.6694Z" fill="#724B09"/>
<path d="M51.7977 65.9534C51.9555 66.0633 52.0466 65.7183 51.8877 65.6877C51.846 65.6775 51.8035 65.6729 51.761 65.6738C51.6899 65.6738 51.6332 65.8017 51.6976 65.8671C51.7286 65.8999 51.7621 65.9288 51.7977 65.9534Z" fill="#724B09"/>
<path d="M51.0012 65.3662C51.0449 65.3922 51.0969 65.3288 51.0457 65.3073C50.847 65.2242 50.5872 65.1329 50.3579 65.1265C50.2705 65.1265 50.1814 65.1506 50.094 65.1494C49.9656 65.1392 49.8385 65.1212 49.7138 65.0955C49.5753 65.0705 49.432 65.0647 49.2908 65.0783C49.2438 65.084 49.2545 65.1341 49.2908 65.1417C49.5893 65.2235 49.9052 65.1551 50.2111 65.2178C50.4775 65.2743 50.7629 65.2305 51.0012 65.3662Z" fill="#724B09"/>
<path d="M51.5528 60.7998C51.6288 60.5582 51.9265 60.3845 52.1188 60.2159C52.2823 60.07 52.5081 59.9277 52.5719 59.7233C52.5741 59.713 52.5735 59.7023 52.5699 59.6922C52.5663 59.6822 52.5599 59.6731 52.5514 59.6658C52.5428 59.6586 52.5323 59.6533 52.5209 59.6506C52.5095 59.6479 52.4975 59.6478 52.486 59.6504C52.2128 59.7182 52.0002 59.9955 51.8096 60.1714C51.619 60.3473 51.4235 60.521 51.3687 60.7589C51.3662 60.7794 51.3721 60.8001 51.3854 60.817C51.3986 60.834 51.4183 60.846 51.4407 60.851C51.4632 60.856 51.4869 60.8536 51.5075 60.8441C51.5281 60.8347 51.5442 60.819 51.5528 60.7998Z" fill="#724B09"/>
<path d="M47.4842 61.2227C48.0406 61.3872 48.6437 61.4665 49.2505 61.455C49.2608 61.455 49.264 61.4437 49.2505 61.4426C48.6558 61.3877 48.0709 61.2921 47.5048 61.1571C47.4485 61.142 47.4303 61.206 47.4842 61.2227Z" fill="#724B09"/>
<path d="M47.0852 62.6986C46.6415 62.5826 46.1512 62.3622 45.7037 62.3598C45.6891 62.3608 45.6752 62.3694 45.6645 62.3841C45.6537 62.3988 45.6468 62.4186 45.6448 62.4402C45.6429 62.4617 45.6461 62.4836 45.6538 62.5019C45.6616 62.5203 45.6735 62.5341 45.6873 62.5408C46.1014 62.7728 46.6003 62.8354 47.0369 62.9596C47.1513 62.992 47.1996 62.7299 47.0852 62.6986Z" fill="#724B09"/>
<path d="M47.1991 62.2287C47.3815 62.2287 47.5465 62.316 47.7248 62.3591C47.7302 62.3609 47.7358 62.3593 47.7406 62.3547C47.7454 62.3502 47.7491 62.3428 47.7512 62.334C47.7534 62.3251 47.7537 62.3153 47.7521 62.3061C47.7506 62.2969 47.7473 62.2889 47.7428 62.2834C47.5884 62.0889 47.3841 62.0574 47.1991 62.0586C47.1863 62.0586 47.1739 62.0676 47.1648 62.0835C47.1557 62.0994 47.1506 62.1211 47.1506 62.1436C47.1506 62.1662 47.1557 62.1878 47.1648 62.2038C47.1739 62.2197 47.1863 62.2287 47.1991 62.2287Z" fill="#724B09"/>
<path d="M48.1211 62.3603C48.1071 62.3587 48.0928 62.3611 48.0809 62.3668C48.0691 62.3726 48.0604 62.3815 48.0566 62.3917C48.0528 62.4019 48.0541 62.4129 48.0602 62.4224C48.0663 62.432 48.0769 62.4396 48.09 62.4437C48.4413 62.5216 48.8516 62.6572 49.2216 62.6611C49.23 62.6608 49.238 62.6586 49.2446 62.6547C49.2512 62.6507 49.2559 62.6453 49.2581 62.6393C49.2603 62.6332 49.2598 62.6267 49.2568 62.6208C49.2538 62.6149 49.2483 62.6099 49.2413 62.6065C48.9066 62.4788 48.4775 62.439 48.1211 62.3603Z" fill="#724B09"/>
<path d="M46.8413 64.3192C46.5786 64.0978 46.2661 64.1589 45.9885 64.2498C45.9137 64.2749 45.9446 64.4987 46.0208 64.4652C46.2952 64.3455 46.556 64.4018 46.8329 64.3766C46.8478 64.3755 46.8568 64.3336 46.8413 64.3192Z" fill="#724B09"/>
<path d="M56.758 61.35C56.4022 61.2321 56.061 61.0711 55.7419 60.8704C55.6279 60.7957 55.5187 60.9897 55.6365 61.0562C55.9748 61.2559 56.3451 61.3911 56.7297 61.4555C56.7426 61.4574 56.7557 61.4544 56.7666 61.4471C56.7775 61.4397 56.7854 61.4285 56.7888 61.4156C56.7923 61.4027 56.7911 61.3889 56.7854 61.3768C56.7798 61.3647 56.77 61.3552 56.758 61.35Z" fill="#724B09"/>
<path d="M51.7222 66.0972C51.8695 66.1295 51.961 66.2255 52.0873 66.287C52.1821 66.3285 52.2838 66.3569 52.3888 66.3711C52.6589 66.4206 52.8707 66.4341 53.1085 66.5706C53.1547 66.5969 53.1957 66.5406 53.1652 66.5076C53.0057 66.3576 52.7443 66.3576 52.5247 66.3171C52.2206 66.266 52.0516 66.0387 51.7615 65.9772C51.743 65.9727 51.7232 65.9748 51.7064 65.9829C51.6897 65.9909 51.6773 66.0044 51.6721 66.0204C51.6669 66.0363 51.6693 66.0533 51.6787 66.0677C51.6881 66.0822 51.7038 66.0928 51.7222 66.0972Z" fill="#724B09"/>
<path d="M56.9738 66.2978C54.9934 68.8446 52.4988 69.888 49.3952 70.0501C49.362 70.0512 49.3303 70.0648 49.3056 70.0882C49.281 70.1116 49.2651 70.1434 49.2607 70.178C49.2562 70.2126 49.2636 70.2477 49.2815 70.2771C49.2993 70.3066 49.3265 70.3284 49.3582 70.3388C51.9557 71.0825 56.0988 69.0497 57.0886 66.3712C57.0935 66.3557 57.0931 66.3389 57.0877 66.3235C57.0823 66.3082 57.0721 66.2952 57.0589 66.2867C57.0456 66.2782 57.0299 66.2747 57.0145 66.2767C56.999 66.2787 56.9847 66.2861 56.9738 66.2978Z" fill="#724B09"/>
<path d="M47.8371 67.9547C47.629 67.7742 47.4572 67.5492 47.3325 67.2935C47.3156 67.2632 47.2927 67.2375 47.2654 67.2182C47.2381 67.1989 47.2072 67.1865 47.1749 67.1819C47.1426 67.1773 47.1097 67.1807 47.0788 67.1918C47.0479 67.2029 47.0196 67.2213 46.9962 67.2459C46.8133 67.415 46.5897 67.5236 46.3518 67.559C46.1844 67.589 46.232 67.8662 46.391 67.8712C46.6043 67.878 46.8164 67.835 47.0131 67.7452C47.2097 68.272 47.7365 68.8623 48.2418 68.6368C48.3186 68.6018 48.3954 68.4891 48.3324 68.3947C48.205 68.2044 48.0114 68.095 47.8371 67.9547Z" fill="#724B09"/>
<defs>
<linearGradient id="paint0_linear_72_55" x1="-26.5263" y1="48.4211" x2="81.7895" y2="55.4211" gradientUnits="userSpaceOnUse">
<stop stop-color="#EAAF3D"/>
<stop offset="1" stop-color="#EAAF3D" stop-opacity="0"/>
</linearGradient>
</defs>
</svg>
