<svg width="196" height="60" viewBox="0 0 196 60" fill="none" xmlns="http://www.w3.org/2000/svg">
<path d="M82 23.5H86V41H82V34.05H76.5V41H72.5V23.5H76.5V30.2H82V23.5ZM96.9539 28.5H100.704V41H96.9539V39.825C96.2039 40.8417 95.0122 41.35 93.3789 41.35C92.0456 41.35 90.9289 40.8917 90.0289 39.975C89.1456 39.0583 88.7039 37.7917 88.7039 36.175V28.5H92.4539V35.625C92.4539 36.3583 92.6539 36.925 93.0539 37.325C93.4706 37.7083 93.9956 37.9 94.6289 37.9C95.3456 37.9 95.9122 37.6833 96.3289 37.25C96.7456 36.8167 96.9539 36.175 96.9539 35.325V28.5ZM107.204 30.725C107.437 29.925 107.904 29.3167 108.604 28.9C109.321 28.4667 110.104 28.25 110.954 28.25V32.5C110.037 32.35 109.179 32.5083 108.379 32.975C107.596 33.425 107.204 34.2167 107.204 35.35V41H103.454V28.5H107.204V30.725ZM116.457 30.725C116.69 29.925 117.157 29.3167 117.857 28.9C118.574 28.4667 119.357 28.25 120.207 28.25V32.5C119.29 32.35 118.432 32.5083 117.632 32.975C116.849 33.425 116.457 34.2167 116.457 35.35V41H112.707V28.5H116.457V30.725ZM130.079 28.5H134.079L129.804 40.625C129.104 42.5917 128.179 44 127.029 44.85C125.896 45.7 124.446 46.0833 122.679 46V42.5C123.546 42.5 124.212 42.3417 124.679 42.025C125.146 41.725 125.521 41.1917 125.804 40.425L120.829 28.5H124.954L127.729 36.15L130.079 28.5ZM142.211 23.5C143.778 23.5 145.078 24.0167 146.111 25.05C147.144 26.0833 147.661 27.375 147.661 28.925C147.661 30.475 147.144 31.7667 146.111 32.8C145.078 33.8167 143.778 34.325 142.211 34.325H137.586V41H136.261V23.5H142.211ZM142.211 33.075C143.411 33.075 144.394 32.6833 145.161 31.9C145.944 31.1167 146.336 30.125 146.336 28.925C146.336 27.7083 145.944 26.7083 145.161 25.925C144.394 25.1417 143.411 24.75 142.211 24.75H137.586V33.075H142.211ZM152.009 25.2C151.809 25.3833 151.575 25.475 151.309 25.475C151.042 25.475 150.809 25.3833 150.609 25.2C150.409 25 150.309 24.7583 150.309 24.475C150.309 24.2083 150.409 23.9833 150.609 23.8C150.809 23.6 151.042 23.5 151.309 23.5C151.575 23.5 151.809 23.6 152.009 23.8C152.209 23.9833 152.309 24.2083 152.309 24.475C152.309 24.7583 152.209 25 152.009 25.2ZM150.684 41V28.5H151.934V41H150.684ZM156.961 39.775H164.686V41H155.186V40.175L162.686 29.725H155.436V28.5H164.436V29.325L156.961 39.775ZM168.631 39.775H176.356V41H166.856V40.175L174.356 29.725H167.106V28.5H176.106V29.325L168.631 39.775ZM189.613 28.5H190.888V41H189.613V38.175C189.08 39.1417 188.347 39.9 187.413 40.45C186.48 41 185.422 41.275 184.238 41.275C182.455 41.275 180.93 40.65 179.663 39.4C178.397 38.1333 177.763 36.5833 177.763 34.75C177.763 32.9167 178.397 31.375 179.663 30.125C180.93 28.8583 182.455 28.225 184.238 28.225C185.422 28.225 186.48 28.5 187.413 29.05C188.347 29.6 189.08 30.3583 189.613 31.325V28.5ZM180.563 38.525C181.597 39.5583 182.855 40.075 184.338 40.075C185.822 40.075 187.072 39.5583 188.088 38.525C189.105 37.4917 189.613 36.2333 189.613 34.75C189.613 33.2667 189.105 32.0083 188.088 30.975C187.072 29.9417 185.822 29.425 184.338 29.425C182.855 29.425 181.597 29.9417 180.563 30.975C179.547 32.0083 179.038 33.2667 179.038 34.75C179.038 36.2333 179.547 37.4917 180.563 38.525Z" fill="#7A520D"/>
<path d="M46.0427 0.28602C45.3563 0.517741 44.6582 0.723068 43.9895 0.987054C43.3588 1.23344 42.8162 1.60889 42.1973 1.89048C41.5283 2.15342 40.8423 2.37096 40.1441 2.54163C38.4252 3.06081 36.7152 3.62398 35.1723 4.56553C33.7439 5.44549 27.6898 8.56347 26.1352 9.40236C25.4459 9.77487 24.7596 10.1591 24.082 10.5756C23.4044 10.9921 22.9087 11.5524 22.3221 12.0774C21.4421 12.8606 20.1779 13.324 19.1425 13.9135C17.8431 14.6498 16.6963 15.7204 15.523 16.6326C14.2999 17.58 13.197 18.4952 12.8069 20.041C12.6349 20.7145 12.625 21.4192 12.778 22.0973C12.9309 22.7754 13.2424 23.4076 13.6868 23.9421C14.5374 24.9922 15.479 25.9689 16.3472 27.0073C17.0336 27.8315 17.6759 28.7056 18.3652 29.5151C19.2687 30.5799 20.2366 31.5948 21.1107 32.68C22.1578 33.9765 23.0994 35.3492 24.2932 36.5196C24.8006 37.0153 26.8275 39.2621 27.3584 39.8898C28.1945 40.8758 29.2211 41.6829 30.3766 42.2627C31.3592 42.7526 38.3607 48.1291 39.5868 49.2349C40.9171 50.3872 42.3518 51.4134 43.8721 52.3001C46.8053 54.0805 49.4452 56.2686 52.4018 58.008C53.5927 58.7061 54.9508 59.5039 56.7136 59.8735C57.0629 59.9141 57.4166 59.8593 57.7373 59.7151C58.0103 59.5604 58.234 59.3316 58.3826 59.0551C58.5218 58.7797 58.6112 58.4818 58.6466 58.1752C58.8108 56.0604 59.2977 50.3788 59.5089 49.6133C59.6978 48.9687 59.8323 48.3093 59.9108 47.6422C60.0051 46.3274 60.0247 45.0082 59.9694 43.6912C59.9694 42.2246 59.7846 40.758 59.6438 39.309C59.5734 38.5816 58.8724 35.4519 58.8431 34.5749C58.7873 32.8326 58.626 31.0756 58.6319 29.3333C58.6319 27.7464 58.9252 26.1684 58.7844 24.5874C58.629 22.8744 57.8165 21.4342 57.2533 19.8474C56.7136 18.3221 56.96 16.6502 56.8163 15.0575C56.5875 12.3208 55.027 10.0183 54.2468 7.44885C53.4666 4.87939 52.5954 1.47104 49.8001 0.37403C48.5962 -0.0924131 47.2671 -0.123553 46.0427 0.28602Z" fill="#744E0A"/>
<path d="M57.1037 58.6914C57.2826 55.9343 57.1037 56.6001 57.136 53.2181C57.1536 51.6342 57.7402 49.7306 57.7226 47.6803C57.705 45.9673 57.6551 44.1224 57.5935 42.1953C57.5407 40.4354 57.1565 38.6285 57.0509 36.763C56.9512 34.962 56.9248 33.1229 56.7576 31.3014C56.5904 29.4799 57.0274 27.5411 56.8045 25.7636C56.5699 23.9128 55.3848 22.3054 55.0651 20.5865C54.7161 18.7093 55.0211 16.7353 54.5518 15.1162C54.2519 14.0988 53.8591 13.111 53.3786 12.1654C52.2375 9.88925 52.7919 10.4524 52.2053 9.25571C51.7506 9.43463 50.815 9.75431 49.7854 10.1004C48.9524 10.3937 48.0548 10.6871 47.2951 10.9276L45.7552 11.435C43.4236 12.247 41.1467 13.2081 38.9385 14.3125C36.9322 15.298 34.9553 16.3657 33.1396 17.4099C30.6787 18.8266 28.5169 20.1876 26.98 21.223C25.883 21.9563 25.0969 22.5195 24.7361 22.8187C24.2609 23.2118 23.378 23.8952 22.4511 24.6197C21.2779 25.5348 20.0254 26.5145 19.4505 27.0308C20.0987 27.94 20.7968 28.7379 21.3189 29.3773C21.9349 30.1165 22.6359 30.8703 23.3311 31.6945C24.4164 32.9851 25.3843 34.5309 26.7512 35.8655C28.0007 37.0827 29.391 38.2707 30.799 39.4909C32.1541 40.6642 33.6911 41.6878 35.1225 42.8318C36.5539 43.9757 37.8063 45.3103 39.2494 46.3927C40.7454 47.5161 41.9656 48.9152 43.4058 49.9447C44.975 51.0623 46.6322 51.9686 48.0343 52.9366C49.7297 54.0922 51.1376 55.3124 52.4605 56.163C55.3086 58.0021 57.1037 58.7178 57.1037 58.6914Z" fill="#E3A231"/>
<path d="M21.8645 27.1833C22.9116 26.3972 23.9177 25.6521 24.4457 25.2239C24.8534 24.9012 25.7363 24.2853 26.9711 23.464C28.7076 22.3318 31.1362 20.8241 33.8905 19.2549C35.9203 18.0816 38.1289 16.9083 40.367 15.7908C42.8293 14.5629 45.3599 13.4768 47.9463 12.5379L49.6505 11.9513C50.4923 11.6579 51.4837 11.3118 52.4076 10.9833L52.7743 10.8543C52.481 10.0975 52.6511 10.1444 52.2287 9.28207C51.7741 9.461 50.8384 9.78072 49.8089 10.1268C48.9758 10.4201 48.0783 10.7135 47.3186 10.954L45.7787 11.4614C43.4471 12.2734 41.1701 13.2345 38.962 14.3389C36.9557 15.3244 34.9787 16.3921 33.1631 17.4363C30.7021 18.853 28.5404 20.214 27.0034 21.2494C25.9064 21.9827 25.1203 22.5459 24.7595 22.8451C24.2843 23.2381 23.4015 23.9216 22.4746 24.6461C21.3013 25.5612 20.0488 26.5409 19.4739 27.0571C19.7907 27.5 20.1192 27.9165 20.4331 28.3008C20.8877 27.9165 21.3805 27.547 21.8645 27.1833Z" fill="#B87F1C"/>
<path d="M46.7525 3.39815L45.1334 3.93198C44.1097 4.26636 43.4263 4.81194 42.9628 4.97327C41.329 5.51884 39.3843 5.95882 37.6655 6.73317C36.4629 7.27875 35.4861 8.11763 34.3011 8.7248C31.1362 10.3439 27.8863 11.8545 25.4723 13.3622C24.9443 13.6907 24.5425 14.3624 24.0761 14.6615C22.2605 15.8348 20.8643 16.4039 20.3598 16.8262C19.6499 17.4129 18.0953 18.6125 16.7519 19.6743C16.4793 19.8743 16.2497 20.1271 16.0768 20.4176C15.9039 20.7082 15.7912 21.0305 15.7455 21.3655C15.6998 21.7005 15.722 22.0413 15.8107 22.3676C15.8995 22.6938 16.053 22.9989 16.2621 23.2645C16.4381 23.4699 16.6024 23.6664 16.7519 23.8512C17.4119 24.6519 18.1657 25.4674 18.9137 26.3591C19.0956 26.5761 19.2715 26.8078 19.4505 27.0366C20.1574 26.45 21.4421 25.4058 22.457 24.6168C23.3839 23.8923 24.2667 23.2088 24.7419 22.8158C25.1027 22.5225 25.8888 21.9534 26.9858 21.2201C28.5316 20.1876 30.6933 18.8266 33.1455 17.407C34.9611 16.3657 36.9381 15.2951 38.9444 14.3096C41.1525 13.2052 43.4295 12.2441 45.7611 11.4321L47.301 10.9247C48.0607 10.6724 48.9582 10.3791 49.7912 10.0975C50.8208 9.75142 51.7565 9.43171 52.2111 9.25572C52.2346 9.29972 52.2522 9.34076 52.2727 9.38182C52.234 9.1621 52.1831 8.94472 52.1202 8.73067C51.7951 7.63414 51.37 6.5698 50.8501 5.5511C50.724 5.29884 50.6184 5.07885 50.5275 4.88526C49.9027 3.5272 48.2895 2.89365 46.7525 3.39815Z" fill="#EFD49B"/>
<path d="M16.4968 22.7512C17.9869 21.6102 19.7233 20.3255 20.4918 19.6949C21.052 19.2432 22.5802 18.6067 24.5806 17.3337C25.091 17.0081 25.5515 16.3071 26.1323 15.9492C28.7897 14.3125 32.3448 12.6376 35.8118 10.8543C37.1112 10.1884 38.1964 9.28795 39.5105 8.68372C41.3936 7.81843 43.4996 7.2934 45.2801 6.66863C45.7846 6.49264 46.5413 5.90307 47.6559 5.51883L49.4158 4.90872C49.7441 4.79836 50.0852 4.73035 50.4307 4.70633C50.0653 4.09544 49.4987 3.63078 48.8281 3.39208C48.1574 3.15337 47.4247 3.15552 46.7555 3.39815L45.1363 3.93197C44.1127 4.26635 43.4292 4.81194 42.9658 4.97326C41.332 5.51883 39.3873 5.95881 37.6685 6.73317C36.4659 7.27874 35.4891 8.11762 34.3041 8.72479C31.1392 10.3439 27.8893 11.8545 25.4753 13.3622C24.9473 13.6907 24.5454 14.3624 24.0791 14.6615C22.2634 15.8348 20.8672 16.4038 20.3627 16.8262C19.6529 17.4129 18.0983 18.6125 16.7549 19.6743C16.2403 20.0566 15.8904 20.6202 15.776 21.251C15.6616 21.8817 15.7914 22.5324 16.1389 23.071C16.2505 22.956 16.3701 22.8492 16.4968 22.7512Z" fill="#DDBE8E"/>
<path d="M46.0045 43.5474C46.3858 42.3917 48.222 38.9981 52.3079 38.1914C56.3938 37.3848 57.6316 38.2325 57.8135 40.2447C57.9367 41.6203 58.2359 43.2394 58.2065 45.4921C58.1772 47.7448 58.4676 48.132 57.7666 50.5607C56.8866 53.5994 49.7737 51.2529 47.9668 49.3229C46.7525 48.0293 45.3856 45.4276 46.0045 43.5474Z" fill="#7A520D"/>
<path d="M41.4024 32.9763C42.0477 34.0616 44.186 37.376 42.1386 41.4502C40.0913 45.5244 38.5719 46.114 36.9469 44.8703C34.8937 43.3099 35.6651 43.7234 33.9433 42.2305C32.7055 41.151 31.8901 41.4796 30.0188 39.4909C29.6409 39.0556 29.3013 38.5884 29.0039 38.0947C27.2234 35.3551 32.9783 31.2017 35.6504 30.8996C37.4602 30.6884 40.3553 31.2076 41.4024 32.9763Z" fill="#7A520D"/>
<path d="M24.7859 28.0838C25.0565 27.4466 25.4757 26.8836 26.0084 26.4416C26.5412 25.9997 27.172 25.6918 27.8482 25.5436C29.8046 25.1271 30.3355 25.5876 30.8605 26.406C31.3856 27.2243 32.3271 28.6792 30.5936 30.6327C28.8601 32.5862 26.4872 31.6065 25.6571 30.7354C25.091 30.137 24.4603 28.9461 24.7859 28.0838ZM26.977 29.6706C27.1356 29.8329 27.3259 29.9609 27.536 30.0466C27.7461 30.1324 27.9715 30.1741 28.1984 30.1692C28.4253 30.1642 28.6487 30.1127 28.8549 30.0179C29.061 29.923 29.2455 29.7869 29.3969 29.6178C30.2534 28.6616 29.787 27.9488 29.5289 27.547C29.2708 27.1451 29.0097 26.9193 28.0623 27.1246C27.7303 27.1967 27.4206 27.3476 27.1592 27.5646C26.8978 27.7815 26.6925 28.0582 26.5605 28.3712C26.3933 28.7848 26.6984 29.3655 26.977 29.6559V29.6706Z" fill="#744E0A"/>
<path d="M49.6242 32.158C50.0374 32.4663 50.3593 32.8809 50.5555 33.3576C50.7518 33.8344 50.8151 34.3554 50.7388 34.8653C50.5129 36.3583 50.0026 36.6516 49.2135 36.8716C48.4245 37.0915 47.0195 37.4934 45.987 35.8537C44.9546 34.2141 46.3859 32.7065 47.304 32.2694C47.9259 31.9761 49.0287 31.759 49.6242 32.158ZM47.7675 33.4309C47.3158 33.6421 46.6147 34.3813 47.1192 35.1908C47.6237 36.0004 48.313 35.7951 48.7002 35.6895C49.0874 35.5839 49.3367 35.4372 49.4482 34.7039C49.4862 34.4542 49.4556 34.1989 49.3595 33.9653C49.2633 33.7317 49.1054 33.5288 48.9026 33.3782C48.6093 33.1787 48.0725 33.2843 47.7675 33.4309Z" fill="#744E0A"/>
<path d="M40.939 23.5432C38.437 25.7665 34.5828 25.6492 34.5828 25.6492C34.5828 25.6492 34.7764 21.927 37.2784 19.7037C39.7804 17.4803 43.6345 17.5976 43.6345 17.5976C43.6345 17.5976 43.438 21.3198 40.939 23.5432Z" fill="#5F9E45"/>
<path d="M49.3601 28.9138L49.7209 28.8288C53.402 27.984 53.9858 25.5553 53.7306 24.0037C53.5047 22.6163 53.1029 22.1147 52.5573 22.2438C51.3048 22.5371 51.1142 23.2293 49.9966 23.7778C49.9966 23.7192 49.9761 23.6605 49.9673 23.6018C49.7972 22.411 49.6476 18.9909 49.6476 18.9909C49.6339 18.9109 49.6038 18.8347 49.5592 18.7669C49.5145 18.6992 49.4564 18.6415 49.3883 18.5974C49.3202 18.5533 49.2437 18.5238 49.1636 18.5107C49.0835 18.4977 49.0016 18.5014 48.9231 18.5216L46.8493 18.9997C46.6837 19.0371 46.5381 19.1353 46.4414 19.2749C46.3447 19.4145 46.3039 19.5853 46.3272 19.7535C46.3272 19.7535 47.2717 23.0005 47.4858 24.1826L47.5122 24.3381C46.3595 24.3087 45.9576 23.7514 44.6553 24.0448C44.1097 24.1709 43.8956 24.8132 44.1215 26.2036C44.3708 27.767 45.679 29.7586 49.3601 28.9138Z" fill="#F4E7CF"/>
<path d="M21.8616 39.3941C22.0216 39.3995 22.1789 39.4366 22.3245 39.5033C22.47 39.57 22.6008 39.665 22.7093 39.7827C22.8178 39.9004 22.9019 40.0384 22.9566 40.1889C23.0113 40.3393 23.0356 40.4991 23.028 40.659C23.0204 40.8189 22.9811 40.9758 22.9124 41.1204C22.8438 41.265 22.747 41.3945 22.6279 41.5014C22.5087 41.6083 22.3695 41.6904 22.2183 41.7431C22.0671 41.7957 21.907 41.8178 21.7472 41.8081L4.7612 40.9868C4.66608 40.9811 4.57638 40.9406 4.50928 40.8729C4.44217 40.8053 4.40237 40.7153 4.39749 40.6201C4.39472 40.5698 4.40196 40.5194 4.41879 40.4719C4.43561 40.4244 4.46169 40.3807 4.49552 40.3433C4.52934 40.306 4.57023 40.2757 4.61584 40.2542C4.66144 40.2327 4.71084 40.2205 4.7612 40.2183L21.7472 39.3941H21.8616Z" fill="#744E0A"/>
<path d="M29.042 46.9001C29.3566 46.9213 29.6504 47.0647 29.8607 47.2995C30.0711 47.5344 30.1813 47.8421 30.1679 48.1571C30.1545 48.4721 30.0186 48.7695 29.789 48.9856C29.5595 49.2018 29.2546 49.3196 28.9393 49.3141L9.52756 48.4928C9.42565 48.4928 9.32792 48.4523 9.25586 48.3802C9.1838 48.3082 9.14331 48.2105 9.14331 48.1086C9.14331 48.0066 9.1838 47.9089 9.25586 47.8369C9.32792 47.7648 9.42565 47.7243 9.52756 47.7243L28.9393 46.9001H29.042Z" fill="#744E0A"/>
<path d="M15.1446 31.8969C15.3031 31.9057 15.4583 31.9457 15.6013 32.0145C15.7444 32.0834 15.8725 32.1797 15.9783 32.2981C16.0841 32.4164 16.1656 32.5545 16.2181 32.7043C16.2705 32.8541 16.293 33.0128 16.2841 33.1713C16.2753 33.3298 16.2353 33.485 16.1664 33.6281C16.0976 33.7711 16.0012 33.8992 15.8829 34.005C15.7645 34.1109 15.6265 34.1923 15.4767 34.2448C15.3269 34.2973 15.1682 34.3197 15.0097 34.3108L0.361366 33.4866C0.267063 33.4824 0.177771 33.4429 0.111019 33.3762C0.0442678 33.3094 0.00487969 33.2201 0.000586622 33.1258C-0.00502373 33.0244 0.0297853 32.9248 0.0973999 32.849C0.165014 32.7731 0.259927 32.7271 0.361366 32.7211L15.0097 31.8969H15.1446Z" fill="#744E0A"/>
</svg>
