<svg width="70" height="70" viewBox="0 0 70 70" fill="none" xmlns="http://www.w3.org/2000/svg">
<circle cx="35" cy="35" r="35" fill="url(#paint0_linear_72_57)" fill-opacity="0.5"/>
<path d="M35.5 19.486C36.8169 19.486 48.3661 19.393 48.3661 16.1625C48.3661 12.932 36.8175 12.8391 35.5 12.8391C34.1824 12.8391 22.6346 12.9327 22.6346 16.1625C22.6346 19.3924 34.1837 19.486 35.5 19.486ZM42.2294 17.365C42.2905 17.235 42.3536 17.105 42.4244 16.9854C42.6194 16.6604 42.9061 16.1079 43.3013 15.9968C43.5379 15.9318 43.5028 15.5294 43.2415 15.5535C43.0179 15.5736 42.7865 15.5619 42.5765 15.6477C42.3334 15.7465 42.0903 15.9604 41.9051 16.1398C41.5515 16.4823 41.1017 17.0244 40.9437 17.5262C40.7624 17.5457 40.5732 17.5633 40.3834 17.5815C40.6148 17.0764 40.8527 16.5818 41.2232 16.1229C41.636 15.6126 42.2593 15.1953 42.9295 15.0725C44.9347 15.4098 46.1626 15.8401 46.5766 16.1638C46.1177 16.52 44.6533 17.014 42.2294 17.365ZM35.5 14.5304C37.3641 14.5232 39.2272 14.6185 41.0809 14.8157C41.0055 14.8755 40.9294 14.9314 40.856 15.001C40.1111 15.7043 39.335 16.6669 39.0223 17.69C37.9557 17.755 36.7837 17.7973 35.5006 17.7973C31.0585 17.7973 27.9113 17.3299 26.0978 16.8366C28.7627 15.5574 32.2136 15.688 35.1119 15.7966C35.3823 15.807 35.3791 15.3942 35.1119 15.378C32.9799 15.248 30.872 15.1622 28.7419 15.3942C27.518 15.5242 26.2512 15.6965 25.3873 16.6162C24.9252 16.4557 24.5975 16.2997 24.4227 16.1612C25.2163 15.545 28.9584 14.5304 35.5 14.5304Z" fill="#724B09"/>
<path d="M52.2414 19.5288C52.2765 19.0491 52.192 18.5291 52.192 18.0702C52.192 17.4313 52.3395 16.6513 52.0724 16.0552C51.4939 12.3502 43.2636 10.3586 35.4974 10.3586C27.4465 10.3586 18.8905 12.5036 18.8905 16.4732C18.8912 16.6987 18.9203 16.9232 18.977 17.1414C18.9874 17.4592 19.0186 17.7777 19.0192 18.0676C19.0192 18.4401 18.9633 18.8548 18.9607 19.2558C16.4426 22.472 17.2896 24.8179 19.7108 26.4481C19.7076 31.2438 19.952 36.0479 20.1359 40.8384C20.3108 45.3884 20.0612 50.2179 20.8613 54.6977C20.8752 54.7808 20.9081 54.8596 20.9575 54.9278C20.9753 54.9643 20.9959 54.9993 21.0193 55.0325C23.7441 58.6725 29.8021 60.9936 34.629 60.4457C39.5586 61.3433 46.1086 58.9793 48.9803 55.1436C49.0036 55.1116 49.0238 55.0774 49.0408 55.0416C49.0913 54.973 49.1249 54.8935 49.1389 54.8095C49.9189 50.4409 49.6804 45.7095 49.85 41.2798C50.032 36.5413 50.2745 31.7898 50.2621 27.0448C53.3516 25.4562 54.805 23.02 52.2414 19.5288ZM51.0005 19.989C48.7808 21.8058 46.7482 22.9257 43.8596 23.6433C40.971 24.3609 37.97 24.8946 34.9839 24.8939C32.2285 24.8939 29.4387 24.3219 26.7529 23.7239C23.9508 23.1019 22.1919 21.8526 20.1281 20.1964C20.2997 19.861 20.3231 19.4632 20.303 19.0582C23.057 21.3664 29.4218 22.589 35.5006 22.589C41.7517 22.589 48.3056 21.2962 50.9238 18.86C50.8978 19.25 50.8907 19.6439 51.0005 19.989ZM35.5 12.0532C44.741 12.0532 50.4155 14.6291 50.4155 16.4732C50.4155 18.3172 44.7417 20.899 35.5 20.899C26.2583 20.899 20.5844 18.3231 20.5844 16.4758C20.5844 14.6285 26.2596 12.0532 35.5 12.0532ZM22.825 27.9535C22.7938 28.2603 22.7743 28.5716 22.7541 28.883C22.1078 28.6116 21.4859 28.2854 20.8951 27.908C20.875 27.6389 20.8561 27.3704 20.8347 27.102C21.4808 27.4233 22.1479 27.7004 22.8315 27.9314C22.8315 27.9398 22.825 27.945 22.825 27.9535ZM23.54 28.1621C23.9638 28.2921 24.3999 28.4091 24.8445 28.519C24.825 28.8726 24.8058 29.2284 24.7867 29.5863C24.3876 29.4777 23.9898 29.351 23.5959 29.2106C23.5861 28.8596 23.566 28.5105 23.54 28.1621ZM47.7102 54.1621C47.5295 54.3942 47.3371 54.6119 47.1408 54.8238C47.0992 54.4435 47.0775 54.0612 47.0758 53.6785C47.1012 52.6424 47.1506 51.6447 47.0459 50.6073C47.0394 50.5786 47.0233 50.5529 47.0003 50.5345C46.9772 50.5162 46.9486 50.5062 46.9192 50.5062C46.8897 50.5062 46.8611 50.5162 46.8381 50.5345C46.8151 50.5529 46.799 50.5786 46.7924 50.6073C46.6865 51.6369 46.7274 52.6502 46.6689 53.6785C46.6338 54.3071 46.4687 54.9135 46.4297 55.5219C46.2718 55.663 46.1047 55.7943 45.9435 55.9249C45.9357 55.5778 45.913 55.2301 45.9117 54.8992C45.9078 53.9567 45.9585 53.0142 45.9767 52.0704C45.9825 51.7864 45.5477 51.7877 45.536 52.0704C45.4924 53.1267 45.4404 54.1712 45.3247 55.2216C45.2779 55.6454 45.1993 56.0666 45.1739 56.4859C45.0316 56.5814 44.8925 56.6809 44.7456 56.7706C44.7456 56.4794 44.7456 56.1856 44.7456 55.8937C44.7592 54.9876 44.8106 54.0822 44.8216 53.1761C44.8249 52.8972 44.4095 52.9018 44.392 53.1761C44.3088 54.4826 44.0527 55.8534 44.002 57.1846C43.872 57.2496 43.742 57.3146 43.612 57.3796C43.612 57.3705 43.612 57.3601 43.612 57.351C43.6264 56.8627 43.5812 56.3744 43.4774 55.897C43.4287 55.6493 43.0874 55.7345 43.066 55.9529C43.0198 56.4209 42.9685 56.8817 42.936 57.351C42.9288 57.4648 42.9158 57.5837 42.9048 57.702C42.7936 57.7488 42.6792 57.7891 42.5668 57.832C42.5343 57.702 42.5018 57.5688 42.4803 57.442C42.4569 57.2997 42.2301 57.3361 42.2314 57.4758C42.2279 57.6475 42.209 57.8185 42.1748 57.9867C40.191 58.7069 38.0343 59.0703 35.9348 59.2432C35.3349 59.2217 34.7232 59.186 34.1057 59.1359C34.109 59.1281 34.1181 59.1242 34.1207 59.1158C34.588 57.3179 34.2728 55.0682 34.1207 53.2372C34.1181 53.1966 34.1002 53.1586 34.0705 53.1308C34.0409 53.1029 34.0018 53.0875 33.9611 53.0875C33.9205 53.0875 33.8813 53.1029 33.8517 53.1308C33.8221 53.1586 33.8041 53.1966 33.8015 53.2372C33.7001 55.0936 33.3524 57.2711 33.7053 59.1015C32.6536 59.0068 31.6078 58.8538 30.573 58.6432C30.5554 57.8184 30.3669 56.9331 30.313 56.2122C30.2974 55.9886 29.9594 55.9828 29.9607 56.2122C29.9652 56.857 29.9119 57.4875 29.8755 58.1304C29.869 58.2474 29.8586 58.3663 29.8495 58.4859C29.5189 58.4066 29.1907 58.32 28.8648 58.2259C28.8888 57.7878 28.8485 57.3348 28.8446 56.9064C28.8368 56.0887 28.8134 55.2847 28.6496 54.4819C28.5931 54.2109 28.2343 54.3103 28.2057 54.5417C28.1095 55.3295 28.1504 56.1154 28.1361 56.9064C28.1296 57.2483 28.0822 57.6091 28.0601 57.9666C27.8339 57.8886 27.6122 57.8015 27.3906 57.7144C27.5446 56.9025 27.4445 56.0244 27.4374 55.2073C27.4289 54.2135 27.4049 53.232 27.2424 52.2505C27.1982 51.9827 26.8199 52.075 26.7991 52.3109C26.7074 53.3509 26.7458 54.3909 26.7276 55.4309C26.7165 56.0809 26.6281 56.7504 26.6626 57.403C26.4097 57.288 26.1608 57.1671 25.9164 57.0377C26.0652 56.2317 25.9671 55.3614 25.9599 54.5508C25.9508 53.557 25.9268 52.5761 25.7649 51.5946C25.7207 51.3268 25.3424 51.4191 25.3216 51.6544C25.23 52.6944 25.2683 53.7344 25.2501 54.7744C25.2397 55.3835 25.1624 56.0062 25.1773 56.6185C24.9693 56.4885 24.7655 56.3531 24.5657 56.2122C24.6723 55.455 24.5865 54.6522 24.58 53.8982C24.5709 52.9044 24.5468 51.9235 24.385 50.9414C24.3408 50.6742 23.9625 50.7665 23.9417 51.0018C23.85 52.0418 23.8884 53.0818 23.8702 54.1218C23.8617 54.6152 23.8091 55.1183 23.7974 55.6168C23.6063 55.4556 23.4236 55.2827 23.2436 55.1072C23.2936 54.4449 23.2306 53.7572 23.2247 53.1085C23.2156 52.1146 23.1916 51.1331 23.0297 50.1516C22.9849 49.8838 22.6066 49.9761 22.5858 50.2114C22.4941 51.2514 22.5325 52.2914 22.5149 53.3314C22.5097 53.6395 22.4863 53.9515 22.4668 54.2642C22.4096 54.1946 22.3472 54.1342 22.2913 54.0601C22.2275 53.9726 22.1428 53.9024 22.045 53.856C22.175 52.008 22.147 50.1178 22.0495 48.2185C24.6924 51.8319 30.8109 52.205 34.8708 52.322C39.6437 52.4591 44.4908 52.0431 47.939 48.8432C47.8584 50.5702 47.8441 52.2882 47.9618 53.9658C47.8638 54.011 47.7783 54.0795 47.7128 54.1654L47.7102 54.1621ZM49.1272 28.0555C48.5422 28.3201 48.0482 28.7146 47.4021 28.9272C46.5536 29.2041 45.6896 29.4309 44.8145 29.6064C44.6643 29.637 44.6955 29.8924 44.8509 29.8768C45.8623 29.7754 48.0391 29.7306 49.0635 28.9018C48.7769 32.8447 48.63 36.8032 48.4525 40.7507C48.3875 42.1989 48.2751 43.6757 48.1659 45.1707C46.9796 46.2672 45.9214 47.2214 44.4154 47.9657C42.9808 48.6729 41.48 49.2059 40.0214 49.8507C39.9505 49.8819 39.9876 49.9969 40.0604 49.9943C42.8112 49.8864 46.1756 48.487 48.0892 46.2549C48.0736 46.4765 48.0593 46.6988 48.045 46.9211C46.4746 48.3622 45.1778 49.6069 42.9412 50.2303C40.6928 50.8575 38.2436 50.9882 35.9147 50.9992C31.7404 51.02 27.1624 50.7392 23.7844 48.3128C23.8266 46.3134 23.8162 44.2048 23.4015 42.258C23.3964 42.2409 23.3858 42.226 23.3715 42.2153C23.3572 42.2047 23.3398 42.199 23.3219 42.199C23.3041 42.199 23.2867 42.2047 23.2723 42.2153C23.258 42.226 23.2475 42.2409 23.2423 42.258C22.9173 44.0078 22.9173 45.8759 22.9823 47.6797C22.6138 47.3504 22.2695 46.995 21.952 46.6163C21.8103 44.4849 21.627 42.3588 21.5334 40.2911C21.3638 36.5211 21.226 32.7453 20.9725 28.9811C21.3209 29.1215 21.7044 29.2197 22.0346 29.3315C22.264 29.4095 22.4896 29.4823 22.7158 29.5525C22.6007 32.417 22.8939 35.4161 23.1058 38.2228C23.1207 38.4256 23.423 38.4308 23.4249 38.2228C23.4548 35.4584 23.6661 32.5971 23.6082 29.806C23.9904 29.9035 24.3733 29.9847 24.762 30.0439C24.5156 34.8331 24.3934 39.9622 25.2865 44.5694C25.3034 44.6559 25.4165 44.6234 25.4269 44.5499C26.0067 39.9187 25.7792 34.9 25.6297 30.1355C25.8897 30.1524 26.1549 30.1628 26.4266 30.1576C26.5391 30.1576 26.5748 29.9724 26.4546 29.9522C26.1796 29.9074 25.9008 29.8528 25.62 29.7917C25.6083 29.4225 25.5992 29.0578 25.5894 28.6925C28.9571 29.427 32.7134 29.6428 35.4922 29.4589C39.3818 29.7189 45.1895 29.1924 49.1649 27.557C49.1539 27.724 49.1428 27.895 49.1298 28.0588L49.1272 28.0555ZM48.1197 26.8134C46.5597 27.3516 44.8873 27.7097 43.2597 27.9834C41.6997 28.2434 40.1579 28.3084 38.6226 28.3084C38.5958 28.2994 38.5681 28.2935 38.54 28.2908C37.5215 28.2479 36.5127 28.2538 35.5078 28.27C34.497 28.2538 33.4817 28.2479 32.4567 28.2908C32.4274 28.2933 32.3986 28.2994 32.3709 28.309C30.8356 28.309 29.2977 28.244 27.7364 27.984C23.8767 27.334 16.5317 25.5322 19.17 20.2783C21.213 25.3561 29.8755 25.9001 34.4398 25.9859C37.9921 26.0509 41.7198 25.4841 45.1479 24.567C47.5854 23.917 50.5176 22.784 51.9183 20.5435C53.0331 23.3788 50.9953 25.8254 48.1223 26.8166L48.1197 26.8134Z" fill="#724B09"/>
<path d="M27.9217 26.7803C24.905 25.661 21.4041 25.2651 19.5451 22.3297C19.5355 22.3137 19.5205 22.3017 19.5027 22.2959C19.485 22.2902 19.4658 22.291 19.4486 22.2983C19.4314 22.3056 19.4174 22.3188 19.4093 22.3356C19.4011 22.3523 19.3992 22.3715 19.4041 22.3895C19.9098 25.6441 25.1488 27.0045 27.8703 27.1592C28.1004 27.1722 28.1134 26.855 27.9217 26.7803Z" fill="#724B09"/>
<path d="M51.5778 21.8077C51.1299 22.9985 50.777 23.9202 49.6401 24.5995C48.9778 24.9953 48.2309 25.3034 47.5257 25.5972C46.1665 26.1634 44.8061 26.6372 43.3657 26.9427C43.1141 26.996 43.2227 27.3691 43.471 27.3249C46.721 26.7464 51.4699 25.8468 52.1862 21.9741C52.2082 21.8935 52.1973 21.8073 52.1559 21.7347C52.1145 21.662 52.0458 21.6088 51.9652 21.5867C51.8845 21.5647 51.7983 21.5756 51.7257 21.617C51.653 21.6584 51.5998 21.7271 51.5778 21.8077Z" fill="#724B09"/>
<path d="M49.7402 19.9903C49.0597 20.1047 48.4636 20.6527 47.8734 20.9998C47.1372 21.4255 46.3513 21.7587 45.5334 21.9917C45.2123 22.0879 45.3462 22.5592 45.6712 22.4909C46.535 22.3102 47.2871 22.0645 48.0626 21.6459C48.721 21.2884 49.568 20.9569 49.9918 20.3238C50.1159 20.1418 49.917 19.9604 49.7402 19.9903Z" fill="#724B09"/>
<path d="M23.7727 18.8067C26.2901 19.7947 28.6301 20.3667 31.3608 20.1268C31.5441 20.1112 31.6169 19.822 31.4076 19.781C29.0598 19.326 22.1015 19.56 21.9826 15.8641C21.9754 15.6282 21.5926 15.5502 21.5503 15.8056C21.3033 17.3429 22.4239 18.275 23.7727 18.8067Z" fill="#724B09"/>
<path d="M48.7463 16.4589C48.6813 17.0172 48.2614 17.4534 47.8363 17.7797C47.0765 18.3647 46.262 18.7371 45.3624 19.0524C45.1882 19.1135 45.1993 19.4248 45.4092 19.3988C46.615 19.25 48.045 18.7254 48.9368 17.8583C49.6076 17.2083 50.0918 15.6835 49.0505 15.1407C48.8744 15.0491 48.5955 15.1583 48.6196 15.3877C48.6527 15.7504 48.7899 16.0956 48.7463 16.4589Z" fill="#724B09"/>
<path d="M33.2731 50.1016C31.8717 49.6739 30.3481 49.7253 28.9129 49.3346C27.4777 48.944 26.194 48.2264 24.8179 47.6804C24.7198 47.642 24.6411 47.7883 24.7159 47.8552C26.6496 49.5888 30.6959 51.1013 33.2731 50.3993C33.3048 50.3894 33.3325 50.3696 33.3522 50.3428C33.3718 50.316 33.3824 50.2837 33.3824 50.2505C33.3824 50.2173 33.3718 50.1849 33.3522 50.1581C33.3325 50.1314 33.3048 50.1116 33.2731 50.1016Z" fill="#724B09"/>
<path d="M36.8949 53.0188C36.8676 52.8778 36.6349 52.8758 36.6082 53.0188C36.486 53.7059 36.4958 54.4066 36.4873 55.1034C36.4802 55.7865 36.3742 56.5334 36.5835 57.1918C36.5939 57.226 36.615 57.2559 36.6436 57.2772C36.6723 57.2985 36.7071 57.31 36.7428 57.31C36.7785 57.31 36.8132 57.2985 36.8419 57.2772C36.8706 57.2559 36.8917 57.226 36.902 57.1918C37.1269 56.5418 37.032 55.7865 37.0288 55.1034C37.0236 54.4066 37.0281 53.7046 36.8949 53.0188Z" fill="#724B09"/>
<path d="M32.8389 53.9834C32.8304 53.7579 32.4898 53.7559 32.4866 53.9834C32.4781 54.6158 32.4703 55.2476 32.4664 55.8801C32.4625 56.4287 32.4014 57.0182 32.5964 57.535C32.6034 57.5577 32.6175 57.5777 32.6366 57.5918C32.6558 57.606 32.6789 57.6136 32.7027 57.6136C32.7265 57.6136 32.7497 57.606 32.7688 57.5918C32.7879 57.5777 32.802 57.5577 32.809 57.535C32.9949 57.015 32.9188 56.4241 32.9026 55.8801C32.884 55.2479 32.8627 54.6156 32.8389 53.9834Z" fill="#724B09"/>
<path d="M30.2656 22.9856C28.9045 22.6021 27.4706 22.5813 26.0991 22.2056C24.6954 21.834 23.3546 21.2564 22.1204 20.4915C21.943 20.3804 21.7577 20.6306 21.9001 20.7769C23.7513 22.6729 27.6851 23.7877 30.2656 23.3119C30.4372 23.2833 30.4183 23.0285 30.2656 22.9856Z" fill="#724B09"/>
<path d="M45.2422 25.88C46.444 25.4692 47.6966 25.1865 48.8731 24.7022C49.5881 24.4084 50.4851 23.88 50.3817 22.994C50.3661 22.864 50.2082 22.7645 50.0996 22.877C49.8396 23.148 49.6609 23.4769 49.3788 23.7265C48.927 24.1263 48.3596 24.3207 47.8084 24.5358C46.925 24.8803 46.0495 25.2554 45.1603 25.583C44.9763 25.6473 45.055 25.945 45.2422 25.88Z" fill="#724B09"/>
<path d="M43.7713 41.3884C43.7814 41.3884 43.7912 41.3843 43.7984 41.3771C43.8056 41.3699 43.8096 41.3602 43.8096 41.35C43.8096 41.3398 43.8056 41.3301 43.7984 41.3229C43.7912 41.3157 43.7814 41.3116 43.7713 41.3116C43.7611 41.3116 43.7513 41.3157 43.7441 41.3229C43.737 41.3301 43.7329 41.3398 43.7329 41.35C43.7329 41.3602 43.737 41.3699 43.7441 41.3771C43.7513 41.3843 43.7611 41.3884 43.7713 41.3884Z" fill="#724B09"/>
<path d="M42.8021 39.2381C42.8016 39.1962 42.7973 39.1544 42.7891 39.1133C42.7729 39.0405 42.7384 38.9794 42.7573 38.9008C42.7579 38.8985 42.7577 38.896 42.7565 38.8938C42.7554 38.8917 42.7534 38.8901 42.7511 38.8894C42.7488 38.8887 42.7462 38.889 42.7441 38.8901C42.742 38.8913 42.7404 38.8933 42.7397 38.8956C42.702 39.0327 42.652 39.1556 42.7917 39.244C42.7956 39.2472 42.8021 39.2433 42.8021 39.2381Z" fill="#724B09"/>
<path d="M42.9295 41.0367C42.9444 41.1173 42.9574 41.2005 42.9685 41.2824C42.9706 41.347 42.9791 41.4112 42.9938 41.4742C42.9962 41.4821 43.0011 41.489 43.0077 41.4939C43.0143 41.4988 43.0223 41.5015 43.0306 41.5015C43.0388 41.5015 43.0468 41.4988 43.0535 41.4939C43.0601 41.489 43.0649 41.4821 43.0673 41.4742C43.1219 41.3305 43.0628 41.1381 43.0023 41.0055C42.9834 40.96 42.921 40.9945 42.9295 41.0367Z" fill="#724B09"/>
<path d="M34.2903 44.47C33.7625 44.7086 33.3439 45.0784 32.9383 45.4827C32.9117 45.5094 32.9461 45.5575 32.9793 45.536C33.3329 45.3033 33.6819 45.0557 34.0531 44.8509C34.3781 44.6722 35.0086 44.327 35.3895 44.3491C35.4076 44.3488 35.4252 44.3426 35.4395 44.3314C35.4538 44.3203 35.4641 44.3048 35.4689 44.2873C35.4736 44.2698 35.4726 44.2512 35.4659 44.2343C35.4592 44.2175 35.4472 44.2032 35.4317 44.1938C35.0807 43.9682 34.6244 44.3186 34.2903 44.47Z" fill="#724B09"/>
<path d="M31.145 45.0478C31.5831 45.1018 32.1089 44.9945 32.445 44.6975C32.4996 44.6494 32.4248 44.5493 32.3657 44.5948C31.99 44.8853 31.5324 44.7248 31.1249 44.8886C31.1063 44.894 31.0902 44.9058 31.0796 44.922C31.0689 44.9382 31.0644 44.9576 31.0669 44.9768C31.0693 44.996 31.0785 45.0137 31.0928 45.0268C31.1072 45.0398 31.1257 45.0473 31.145 45.0478Z" fill="#724B09"/>
<path d="M32.1441 46.316C32.1056 46.2684 32.0777 46.2132 32.0621 46.1541C32.0466 46.0949 32.0437 46.0331 32.0537 45.9728C32.0537 45.9331 31.9978 45.9351 31.9926 45.9728C31.9718 46.1353 31.9789 46.249 32.0817 46.3784C32.1993 46.5253 32.1688 46.73 32.2858 46.8646C32.2906 46.8691 32.2966 46.8721 32.3031 46.8732C32.3096 46.8744 32.3163 46.8737 32.3224 46.8711C32.3285 46.8686 32.3337 46.8644 32.3375 46.859C32.3413 46.8535 32.3434 46.8471 32.3436 46.8405C32.3403 46.707 32.3095 46.5756 32.2533 46.4544C32.2224 46.4042 32.1857 46.3577 32.1441 46.316Z" fill="#724B09"/>
<path d="M33.9822 45.4034C34.0108 45.3124 33.8522 45.2923 33.8561 45.3865C33.8652 45.5256 33.8997 45.6875 34.055 45.72C34.0585 45.7208 34.0621 45.7206 34.0655 45.7194C34.0688 45.7182 34.0717 45.7161 34.0739 45.7132C34.076 45.7104 34.0773 45.707 34.0775 45.7035C34.0778 45.6999 34.0769 45.6964 34.0752 45.6933C34.0219 45.6036 33.9478 45.51 33.9822 45.4034Z" fill="#724B09"/>
<path d="M34.1149 46.0144C34.1591 46.0664 34.1649 46.1281 34.2182 46.1697C34.2325 46.1808 34.2598 46.1756 34.2585 46.1528C34.2533 46.0826 34.2059 46.041 34.1864 45.9728C34.1669 45.9046 34.07 45.9585 34.1149 46.0144Z" fill="#724B09"/>
<path d="M34.5372 45.0098C34.5445 45.0098 34.5516 45.0069 34.5568 45.0017C34.562 44.9964 34.5649 44.9894 34.5649 44.982C34.5649 44.9747 34.562 44.9676 34.5568 44.9624C34.5516 44.9572 34.5445 44.9543 34.5372 44.9543C34.5298 44.9543 34.5227 44.9572 34.5175 44.9624C34.5123 44.9676 34.5094 44.9747 34.5094 44.982C34.5094 44.9894 34.5123 44.9964 34.5175 45.0017C34.5227 45.0069 34.5298 45.0098 34.5372 45.0098Z" fill="#724B09"/>
<path d="M34.5672 45.2194C34.6368 45.3637 34.6836 45.5249 34.7622 45.6627C34.7641 45.6659 34.767 45.6683 34.7705 45.6695C34.774 45.6707 34.7777 45.6705 34.7811 45.6691C34.7845 45.6676 34.7872 45.665 34.7888 45.6617C34.7903 45.6583 34.7906 45.6546 34.7895 45.651C34.7557 45.495 34.6797 45.3442 34.6329 45.1908C34.632 45.1852 34.6299 45.1799 34.6267 45.1752C34.6234 45.1706 34.6191 45.1667 34.6142 45.164C34.6092 45.1612 34.6037 45.1597 34.598 45.1594C34.5923 45.1591 34.5867 45.1602 34.5815 45.1624C34.5763 45.1647 34.5716 45.1681 34.568 45.1725C34.5643 45.1768 34.5617 45.1819 34.5603 45.1874C34.5589 45.193 34.5588 45.1987 34.56 45.2043C34.5612 45.2098 34.5637 45.215 34.5672 45.2194Z" fill="#724B09"/>
<path d="M33.3602 44.1755C33.3552 44.1266 33.3411 44.079 33.3186 44.0351C33.303 43.9994 33.2406 44.0247 33.2536 44.0624C33.2669 44.1095 33.289 44.1536 33.3186 44.1925C33.3219 44.196 33.3262 44.1985 33.331 44.1995C33.3357 44.2005 33.3407 44.2001 33.3452 44.1983C33.3497 44.1965 33.3536 44.1933 33.3562 44.1892C33.3589 44.1852 33.3603 44.1804 33.3602 44.1755Z" fill="#724B09"/>
<path d="M39.4098 37.4234C39.2375 37.0613 39.1861 36.657 39.0451 36.2846C39.034 36.256 38.9847 36.2566 38.9873 36.2924C39.0523 37.0282 39.27 38.0935 40.052 38.4029C40.1209 38.4302 40.1573 38.3379 40.117 38.2898C39.8667 37.9992 39.5814 37.7828 39.4098 37.4234Z" fill="#724B09"/>
<path d="M38.1813 36.6869C38.1839 36.6907 38.1876 36.6936 38.1919 36.6952C38.1962 36.6968 38.2009 36.697 38.2054 36.6957C38.2098 36.6945 38.2137 36.692 38.2166 36.6884C38.2196 36.6848 38.2213 36.6804 38.2216 36.6759C38.2216 36.3742 38.1299 36.0115 37.944 35.7658C37.892 35.6976 37.7802 35.7561 37.8251 35.8354C37.9817 36.1097 37.9954 36.4256 38.1813 36.6869Z" fill="#724B09"/>
<path d="M37.502 37.097C37.6424 36.8845 37.9492 36.8514 38.1559 36.7311C38.1611 36.7276 38.165 36.7226 38.1672 36.7167C38.1694 36.7109 38.1696 36.7045 38.168 36.6985C38.1663 36.6924 38.1628 36.6871 38.158 36.6832C38.1532 36.6792 38.1472 36.6769 38.141 36.6765C37.8576 36.6837 37.6392 36.8715 37.4435 37.0522C37.4052 37.0879 37.4708 37.1438 37.502 37.097Z" fill="#724B09"/>
<path d="M38.9892 36.0798C39.0581 35.9869 39.1725 35.9765 39.2583 35.9089C39.2966 35.879 39.3233 35.8374 39.361 35.8055C39.3992 35.7748 39.4354 35.7418 39.4695 35.7067C39.4825 35.6931 39.4624 35.6723 39.4494 35.6859C39.4052 35.7409 39.3512 35.7872 39.2901 35.8224C39.2401 35.8458 39.1894 35.866 39.1393 35.8913C39.0573 35.9238 38.9848 35.9765 38.9288 36.0447C38.9021 36.0811 38.9626 36.1156 38.9892 36.0798Z" fill="#724B09"/>
<path d="M39.8868 36.5101C39.9564 36.475 40.0025 36.3976 40.0565 36.3417C40.0883 36.3092 40.0363 36.2586 40.0071 36.2924C39.9538 36.3534 39.881 36.4067 39.8498 36.4821C39.8413 36.5036 39.8693 36.5185 39.8868 36.5101Z" fill="#724B09"/>
<path d="M38.0636 37.8718C38.0415 37.8855 38.048 37.9271 38.0779 37.9238H38.1143C38.1793 37.918 38.1442 37.8237 38.0955 37.8543L38.0636 37.8718Z" fill="#724B09"/>
<path d="M37.9544 37.931C37.8972 37.9843 37.8328 38.0285 37.7756 38.0818C37.7742 38.0837 37.7733 38.0859 37.7731 38.0883C37.7729 38.0907 37.7735 38.093 37.7747 38.0951C37.7759 38.0971 37.7777 38.0987 37.7798 38.0997C37.782 38.1007 37.7843 38.1011 37.7867 38.1007C37.8692 38.0821 37.945 38.0412 38.0057 37.9824C38.0408 37.9518 37.9888 37.8991 37.9544 37.931Z" fill="#724B09"/>
<path d="M39.8037 37.604C39.8692 37.5295 39.9393 37.4592 40.0136 37.3934C40.0843 37.341 40.1482 37.2801 40.204 37.2121C40.2177 37.192 40.1949 37.1673 40.1728 37.1725C39.9973 37.2167 39.8427 37.396 39.7237 37.5241C39.6743 37.58 39.7549 37.658 39.8037 37.604Z" fill="#724B09"/>
<path d="M38.3126 44.5721C38.321 44.5709 38.3287 44.5667 38.3342 44.5603C38.3398 44.554 38.3429 44.5458 38.3429 44.5373C38.3429 44.5288 38.3398 44.5206 38.3342 44.5142C38.3287 44.5078 38.321 44.5037 38.3126 44.5025C38.3042 44.5037 38.2965 44.5078 38.2909 44.5142C38.2853 44.5206 38.2822 44.5288 38.2822 44.5373C38.2822 44.5458 38.2853 44.554 38.2909 44.5603C38.2965 44.5667 38.3042 44.5709 38.3126 44.5721Z" fill="#724B09"/>
<path d="M38.9762 44.7852C38.8735 44.808 38.7812 44.9152 38.7104 44.9802C38.6772 45.0121 38.7253 45.0576 38.7598 45.0296C38.8384 44.9646 38.9548 44.9061 39.0029 44.8171C39.0043 44.8131 39.0046 44.8089 39.0039 44.8048C39.0032 44.8006 39.0014 44.7968 38.9987 44.7935C38.996 44.7903 38.9925 44.7878 38.9885 44.7864C38.9846 44.7849 38.9803 44.7845 38.9762 44.7852Z" fill="#724B09"/>
<path d="M40.2565 43.0167L40.234 43.0444C40.2312 43.0472 40.2296 43.0509 40.2296 43.0548C40.2295 43.0587 40.231 43.0625 40.2337 43.0653C40.2364 43.0681 40.2401 43.0697 40.244 43.0697C40.2479 43.0698 40.2517 43.0683 40.2545 43.0656L40.2823 43.0431C40.3001 43.0279 40.271 42.9988 40.2565 43.0167Z" fill="#724B09"/>
<path d="M40.0298 43.2636C40.0142 43.286 40.0017 43.3105 39.9928 43.3364C39.991 43.3387 39.9902 43.3417 39.9905 43.3446C39.9909 43.3475 39.9924 43.3502 39.9947 43.352C39.9971 43.3538 40 43.3546 40.0029 43.3543C40.0059 43.3539 40.0085 43.3524 40.0103 43.3501C40.05 43.3156 40.0389 43.3299 40.063 43.285C40.0658 43.2807 40.0668 43.2753 40.0657 43.2702C40.0646 43.2651 40.0615 43.2606 40.0571 43.2577C40.0527 43.2549 40.0474 43.2539 40.0423 43.255C40.0372 43.2561 40.0327 43.2592 40.0298 43.2636Z" fill="#724B09"/>
<path d="M39.8764 43.4118C39.868 43.4209 39.8764 43.4397 39.8894 43.4345C39.9216 43.4222 39.952 43.4056 39.9798 43.3851C40.0032 43.3689 39.9798 43.3293 39.957 43.3461C39.9273 43.3642 39.9002 43.3863 39.8764 43.4118Z" fill="#724B09"/>
<path d="M40.0253 42.4199C39.9642 42.4778 39.9181 42.5395 39.8615 42.6006C39.8049 42.6617 39.7529 42.6877 39.7224 42.7547C39.7191 42.7602 39.7178 42.7667 39.7185 42.7731C39.7193 42.7795 39.7222 42.7855 39.7267 42.7901C39.7312 42.7946 39.7372 42.7976 39.7436 42.7985C39.7499 42.7994 39.7564 42.7982 39.762 42.795C39.827 42.7612 39.8589 42.702 39.9109 42.65C39.9629 42.598 40.0292 42.5434 40.0845 42.4791C40.0923 42.4712 40.0967 42.4606 40.0967 42.4495C40.0967 42.4384 40.0923 42.4277 40.0845 42.4199C40.0766 42.4121 40.066 42.4077 40.0549 42.4077C40.0438 42.4077 40.0332 42.4121 40.0253 42.4199Z" fill="#724B09"/>
<path d="M37.7906 42.9315C37.7087 42.9965 37.5573 43.0706 37.5306 43.1798C37.5297 43.183 37.5296 43.1865 37.5304 43.1898C37.5313 43.193 37.533 43.196 37.5354 43.1984C37.5378 43.2008 37.5408 43.2025 37.544 43.2034C37.5473 43.2042 37.5508 43.2041 37.554 43.2032C37.6664 43.185 37.749 43.042 37.8276 42.9666C37.8484 42.9438 37.8146 42.91 37.7906 42.9315Z" fill="#724B09"/>
<path d="M39.3811 45.0433C39.3233 45.1024 39.2661 45.1622 39.2095 45.222C39.2055 45.2261 39.2032 45.2316 39.2032 45.2373C39.2032 45.243 39.2055 45.2485 39.2095 45.2526C39.2136 45.2566 39.2191 45.2589 39.2248 45.2589C39.2305 45.2589 39.236 45.2566 39.2401 45.2526C39.3051 45.198 39.3629 45.1421 39.424 45.0862C39.482 45.027 39.5365 44.9645 39.5872 44.899C39.5889 44.8973 39.5899 44.8949 39.5899 44.8925C39.5899 44.8901 39.5889 44.8877 39.5872 44.886C39.5855 44.8843 39.5831 44.8833 39.5807 44.8833C39.5783 44.8833 39.5759 44.8843 39.5742 44.886C39.5068 44.9346 39.4424 44.9872 39.3811 45.0433Z" fill="#724B09"/>
<path d="M40.6276 43.6321C40.6215 43.6331 40.616 43.6362 40.612 43.6409C40.6081 43.6455 40.6059 43.6515 40.6059 43.6576C40.6059 43.6637 40.6081 43.6696 40.612 43.6743C40.616 43.679 40.6215 43.6821 40.6276 43.683C40.6336 43.6821 40.6391 43.679 40.6431 43.6743C40.6471 43.6696 40.6492 43.6637 40.6492 43.6576C40.6492 43.6515 40.6471 43.6455 40.6431 43.6409C40.6391 43.6362 40.6336 43.6331 40.6276 43.6321Z" fill="#724B09"/>
<path d="M40.3958 43.95C40.3958 43.95 40.3958 43.9565 40.401 43.9539C40.4399 43.9125 40.4726 43.8656 40.4979 43.8148C40.5108 43.7894 40.4686 43.7738 40.4628 43.8005C40.451 43.8544 40.4282 43.9053 40.3958 43.95Z" fill="#724B09"/>
<path d="M34.2357 40.609C34.2507 40.6902 34.2724 40.77 34.3007 40.8476C34.3018 40.8493 34.3033 40.8506 34.3051 40.8513C34.307 40.8521 34.309 40.8522 34.3109 40.8517C34.3128 40.8512 34.3145 40.85 34.3157 40.8485C34.3169 40.8469 34.3176 40.845 34.3176 40.843C34.3051 40.7611 34.2801 40.6815 34.2435 40.6071C34.2434 40.6065 34.2432 40.6061 34.2429 40.6056C34.2426 40.6052 34.2422 40.6049 34.2417 40.6046C34.2413 40.6043 34.2408 40.6041 34.2402 40.604C34.2397 40.604 34.2392 40.604 34.2387 40.6041C34.2382 40.6043 34.2377 40.6045 34.2373 40.6048C34.2368 40.6051 34.2365 40.6055 34.2362 40.606C34.2359 40.6064 34.2357 40.6069 34.2357 40.6074C34.2356 40.608 34.2356 40.6085 34.2357 40.609Z" fill="#724B09"/>
<path d="M33.6339 40.5836C33.6202 40.5453 33.5578 40.5622 33.5728 40.6005C33.6417 40.7741 33.7028 40.9535 33.7535 41.1329C33.7548 41.1356 33.757 41.1378 33.7597 41.1391C33.7625 41.1404 33.7656 41.1407 33.7685 41.1399C33.7714 41.1391 33.774 41.1374 33.7758 41.1349C33.7775 41.1324 33.7784 41.1294 33.7782 41.1264C33.7483 40.9411 33.7 40.7593 33.6339 40.5836Z" fill="#724B09"/>
<path d="M33.7842 41.2008C33.788 41.2008 33.7917 41.1993 33.7944 41.1966C33.7971 41.1939 33.7986 41.1902 33.7986 41.1864C33.7986 41.1825 33.7971 41.1789 33.7944 41.1761C33.7917 41.1734 33.788 41.1719 33.7842 41.1719C33.7803 41.1719 33.7767 41.1734 33.7739 41.1761C33.7712 41.1789 33.7697 41.1825 33.7697 41.1864C33.7697 41.1902 33.7712 41.1939 33.7739 41.1966C33.7767 41.1993 33.7803 41.2008 33.7842 41.2008Z" fill="#724B09"/>
<path d="M32.939 38.8527C32.9553 38.7364 32.9215 38.6129 32.9052 38.4972C32.9 38.4634 32.8402 38.4705 32.8441 38.5056C32.8578 38.6213 32.8565 38.7494 32.9026 38.8573C32.9047 38.8606 32.9076 38.8632 32.9111 38.8649C32.9146 38.8666 32.9185 38.8672 32.9223 38.8667C32.9261 38.8663 32.9298 38.8647 32.9327 38.8622C32.9357 38.8597 32.9379 38.8564 32.939 38.8527Z" fill="#724B09"/>
<path d="M32.9897 39.1433C32.9897 39.1485 33.0007 39.1433 32.9994 39.1387C32.9812 39.0737 32.9591 39.0087 32.9448 38.9437C32.9448 38.9353 32.9299 38.9392 32.9318 38.9476C32.942 39.0152 32.9615 39.081 32.9897 39.1433Z" fill="#724B09"/>
<path d="M32.445 40.3711C32.4649 40.4618 32.4999 40.5486 32.5483 40.6278C32.5529 40.6343 32.5652 40.633 32.5646 40.6233C32.5506 40.5324 32.5275 40.4431 32.4957 40.3568C32.4931 40.351 32.4884 40.3464 32.4827 40.3437C32.4769 40.341 32.4703 40.3405 32.4642 40.3422C32.4581 40.3439 32.4528 40.3478 32.4493 40.3531C32.4457 40.3584 32.4442 40.3648 32.445 40.3711Z" fill="#724B09"/>
<path d="M32.6329 40.8566C32.6296 40.841 32.6029 40.8443 32.6049 40.8605C32.6277 41.038 32.64 41.1719 32.7297 41.3312C32.7369 41.3442 32.7538 41.3351 32.7518 41.3221C32.7402 41.2424 32.7244 41.1634 32.7044 41.0854C32.6829 41.0081 32.6498 40.9353 32.6329 40.8566Z" fill="#724B09"/>
<path d="M31.3914 39.5209C31.376 39.4689 31.3671 39.4152 31.3647 39.361C31.3647 39.3279 31.3121 39.3279 31.3134 39.361C31.3119 39.4232 31.3319 39.484 31.3699 39.5333C31.3784 39.5437 31.3946 39.53 31.3914 39.5209Z" fill="#724B09"/>
<path d="M31.9445 35.8503C31.992 35.8425 32.0404 35.8414 32.0882 35.8471C32.0986 35.8471 32.0986 35.8341 32.0882 35.8308C32.0406 35.8127 31.9917 35.7983 31.9419 35.7879C31.9372 35.7872 31.9325 35.7875 31.928 35.7888C31.9234 35.7902 31.9193 35.7925 31.9157 35.7956C31.9122 35.7987 31.9095 35.8026 31.9076 35.807C31.9058 35.8113 31.9049 35.816 31.9051 35.8207C31.9053 35.8254 31.9066 35.83 31.9087 35.8342C31.9109 35.8384 31.914 35.842 31.9178 35.8449C31.9216 35.8477 31.9259 35.8496 31.9305 35.8506C31.9352 35.8515 31.9399 35.8515 31.9445 35.8503Z" fill="#724B09"/>
<path d="M34.4444 35.411C34.4554 35.411 34.4528 35.3914 34.4444 35.3914C34.3989 35.3914 33.9283 35.4097 33.9244 35.4292C33.9244 35.4051 33.8893 35.4051 33.8867 35.4292C33.8711 35.5429 34.3911 35.422 34.4444 35.411Z" fill="#724B09"/>
<path d="M34.5967 35.3844C34.5979 35.3844 34.5991 35.3839 34.6 35.3831C34.6008 35.3822 34.6013 35.381 34.6013 35.3798C34.6013 35.3786 34.6008 35.3774 34.6 35.3765C34.5991 35.3757 34.5979 35.3752 34.5967 35.3752L34.5524 35.3838C34.5412 35.3838 34.5465 35.4056 34.557 35.401L34.5967 35.3844Z" fill="#724B09"/>
<path d="M32.2324 36.4984C32.2352 36.4975 32.2375 36.4957 32.239 36.4932C32.2405 36.4908 32.2412 36.4879 32.2408 36.485C32.2404 36.4822 32.239 36.4796 32.2369 36.4776C32.2348 36.4757 32.2321 36.4745 32.2292 36.4744C32.0699 36.4536 31.8983 36.5121 31.7508 36.568C31.7138 36.5823 31.7287 36.6427 31.7684 36.629L31.8171 36.6147C31.8333 36.6264 31.845 36.6147 31.8522 36.605C31.9808 36.5764 32.1077 36.5408 32.2324 36.4984Z" fill="#724B09"/>
<path d="M32.486 36.4685C32.4835 36.4691 32.4812 36.4706 32.4795 36.4727C32.4779 36.4748 32.477 36.4773 32.477 36.48C32.477 36.4827 32.4779 36.4852 32.4795 36.4873C32.4812 36.4894 32.4835 36.4909 32.486 36.4915C32.4886 36.4909 32.4909 36.4894 32.4926 36.4873C32.4942 36.4852 32.4951 36.4827 32.4951 36.48C32.4951 36.4773 32.4942 36.4748 32.4926 36.4727C32.4909 36.4706 32.4886 36.4691 32.486 36.4685Z" fill="#724B09"/>
<path d="M34.1727 36.4282C34.1779 36.4282 34.1779 36.4197 34.1727 36.4204L34.1116 36.4256C34.1057 36.4256 34.1057 36.436 34.1116 36.4353L34.1727 36.4282Z" fill="#724B09"/>
<path d="M34.4659 36.4178C34.5386 36.3962 34.6142 36.3855 34.6901 36.386C34.7433 36.3918 34.7971 36.3905 34.85 36.3821C34.8524 36.3812 34.8545 36.3795 34.8558 36.3773C34.8571 36.3751 34.8576 36.3725 34.8572 36.37C34.8568 36.3675 34.8556 36.3651 34.8537 36.3634C34.8518 36.3617 34.8493 36.3607 34.8468 36.3606C34.7681 36.3606 34.694 36.3606 34.6141 36.3567C34.5602 36.349 34.5052 36.3548 34.4542 36.3736C34.4262 36.3834 34.4373 36.4263 34.4659 36.4178Z" fill="#724B09"/>
<path d="M34.2949 35.9661C34.2728 35.9661 34.2721 36.0018 34.2949 36.0012C34.3761 36.0012 34.4528 36.0187 34.5322 35.994C34.536 35.993 34.5394 35.9907 34.5418 35.9875C34.5442 35.9843 34.5455 35.9804 34.5455 35.9765C34.5455 35.9725 34.5442 35.9686 34.5418 35.9654C34.5394 35.9622 34.536 35.96 34.5322 35.9589C34.4509 35.9387 34.3774 35.9635 34.2949 35.9661Z" fill="#724B09"/>
<path d="M34.915 35.955C34.9168 35.9541 34.9183 35.9527 34.9193 35.9509C34.9203 35.9492 34.9209 35.9473 34.9209 35.9453C34.9209 35.9432 34.9203 35.9413 34.9193 35.9396C34.9183 35.9378 34.9168 35.9364 34.915 35.9355C34.8599 35.9307 34.8044 35.936 34.7512 35.9511C34.7495 35.9518 34.7481 35.9529 34.747 35.9545C34.746 35.956 34.7455 35.9577 34.7455 35.9596C34.7455 35.9614 34.746 35.9632 34.747 35.9647C34.7481 35.9662 34.7495 35.9673 34.7512 35.968C34.8057 35.9822 34.8634 35.9776 34.915 35.955Z" fill="#724B09"/>
<path d="M32.0901 37.218C32.1783 37.1915 32.268 37.1698 32.3586 37.153C32.4528 37.1211 32.551 37.103 32.6504 37.099C32.6523 37.099 32.6541 37.0983 32.6555 37.0969C32.6568 37.0956 32.6575 37.0938 32.6575 37.0919C32.6575 37.09 32.6568 37.0882 32.6555 37.0868C32.6541 37.0855 32.6523 37.0847 32.6504 37.0847C32.4639 37.0295 32.237 37.0886 32.0654 37.164C32.0342 37.1751 32.055 37.2303 32.0901 37.218Z" fill="#724B09"/>
<path d="M33.94 36.9495C33.899 36.9573 33.9166 37.021 33.9575 37.0145C34.0356 37.0033 34.1117 36.9814 34.1837 36.9495C34.1873 36.9477 34.1901 36.9447 34.1917 36.9411C34.1933 36.9375 34.1937 36.9334 34.1927 36.9296C34.1917 36.9257 34.1895 36.9223 34.1863 36.9199C34.1831 36.9175 34.1793 36.9163 34.1753 36.9164C34.0957 36.9164 34.0165 36.9276 33.94 36.9495Z" fill="#724B09"/>
<path d="M34.5354 36.8988C34.5312 36.9 34.5275 36.9026 34.5251 36.9063C34.5226 36.9099 34.5216 36.9143 34.5221 36.9187C34.5227 36.923 34.5248 36.927 34.5281 36.9299C34.5313 36.9329 34.5356 36.9345 34.5399 36.9346C34.6244 36.9346 34.7232 36.9437 34.7895 36.8845C34.7928 36.8845 34.7928 36.8748 34.7895 36.8735C34.7076 36.8364 34.6147 36.8709 34.5354 36.8988Z" fill="#724B09"/>
<path d="M34.8383 36.8756V36.8809C34.8554 36.8797 34.8724 36.8775 34.8892 36.8742C34.8945 36.8742 34.8892 36.8656 34.8892 36.8663C34.872 36.868 34.855 36.8711 34.8383 36.8756Z" fill="#724B09"/>
<path d="M34.4632 34.9319C34.4662 34.9301 34.4685 34.9275 34.4699 34.9244C34.4714 34.9213 34.4719 34.9179 34.4714 34.9145C34.4709 34.9111 34.4695 34.9079 34.4672 34.9054C34.4649 34.9028 34.462 34.901 34.4587 34.9C34.3625 34.8682 34.2513 34.9143 34.1584 34.9436C34.1558 34.9436 34.1533 34.9446 34.1515 34.9465C34.1497 34.9483 34.1487 34.9508 34.1487 34.9533C34.1487 34.9559 34.1497 34.9584 34.1515 34.9602C34.1533 34.9621 34.1558 34.9631 34.1584 34.9631C34.2598 34.9598 34.3729 34.98 34.4632 34.9319Z" fill="#724B09"/>
<defs>
<linearGradient id="paint0_linear_72_57" x1="-26.5263" y1="46.4211" x2="81.7895" y2="53.4211" gradientUnits="userSpaceOnUse">
<stop stop-color="#EAAF3D"/>
<stop offset="1" stop-color="#EAAF3D" stop-opacity="0"/>
</linearGradient>
</defs>
</svg>
