<svg width="90" height="92" viewBox="0 0 90 92" fill="none" xmlns="http://www.w3.org/2000/svg">
<mask id="path-1-inside-1_35_51" fill="white">
<path d="M73.749 15.6145C73.8859 10.9421 73.7018 6.26844 73.567 1.59998C73.5539 1.10579 73.0257 0.276576 72.6555 0.198109C72.3457 0.181356 72.0364 0.24103 71.755 0.371792C71.4736 0.502554 71.2286 0.700436 71.0416 0.948066C69.5576 4.31503 66.835 6.50481 64.0454 8.6453C62.8252 9.58069 61.5278 10.4209 60.35 11.403C56.6144 14.5225 53.4983 18.1223 51.7405 22.7524C50.5394 25.9125 52.0791 29.2118 54.6603 31.022C52.7803 32.0553 50.908 33.0868 49.0152 34.0989C48.7017 34.234 48.3749 34.3359 48.0401 34.4028C48.0011 34.0538 47.9903 33.7023 48.008 33.3516C48.3631 30.4268 49.0256 27.5141 49.0165 24.5737C49.0273 22.0668 48.5802 19.5791 47.6972 17.2329C46.6062 14.4757 43.9511 14.3976 42.5468 17.0013C41.4389 19.1204 40.6088 21.3736 40.0772 23.7051C39.7006 25.8944 39.4722 28.1066 39.3934 30.3266C38.6658 29.3871 37.8485 28.5207 36.953 27.7396C35.3247 26.5765 33.6473 25.2639 31.801 24.7103C31.1081 24.5541 30.3904 24.5432 29.693 24.6781C28.9957 24.8131 28.3338 25.091 27.7492 25.4944C26.3761 26.5358 26.8414 28.349 27.5719 29.7669C28.8899 32.2814 30.3455 34.7656 31.6628 37.0959C31.5031 37.0528 31.3466 36.999 31.1942 36.935C27.0413 35.0876 22.9965 35.6858 19.0846 37.6096C16.3492 38.9443 16.1442 41.1705 18.429 43.1264C20.9195 45.1852 24.049 46.3127 27.2803 46.3155C28.3069 46.353 29.3283 46.3675 30.6138 46.3798C29.0427 47.41 27.5281 48.5239 26.0765 49.7167C24.5412 51.0298 23.1674 52.5206 21.9839 54.1578C20.6184 56.1757 21.5623 58.1957 23.9837 58.4859C25.4967 58.7126 27.043 58.523 28.4564 57.9373C31.0889 56.6815 33.5113 54.983 35.9173 53.5367C35.5723 55.6014 35.2187 57.8444 34.7632 60.0618C34.6938 60.3025 34.5725 60.5251 34.4079 60.7139C34.2433 60.9027 34.0393 61.0531 33.8103 61.1546C32.7451 61.4889 31.7726 62.067 30.97 62.843C30.1675 63.619 29.5569 64.5716 29.187 65.6249C28.4346 67.443 27.9005 69.3411 27.2084 71.1778C25.8898 74.6766 24.64 78.2323 23.1228 81.7028C21.8796 84.5274 20.2239 87.1546 17.3339 88.6599C16.351 89.182 16.0138 90.1946 16.7832 90.9545C17.1861 91.3624 18.2705 91.2267 19.0162 91.1179C19.7618 91.0091 20.3177 90.405 20.9774 90.3793C24.8649 90.277 28.7013 89.469 32.2998 87.9948C37.7235 85.7286 41.8337 79.664 41.8221 73.958C41.8454 73.3553 42.0153 72.7673 42.3171 72.245C44.9494 67.6539 47.485 62.988 47.4987 57.4688C47.4902 57.4306 47.6397 57.3815 47.7671 57.3052C48.112 58.0307 48.3881 58.7713 48.7942 59.4833C50.1134 61.9025 51.5709 64.2436 53.1596 66.495C53.5579 66.9205 54.0515 67.2456 54.5998 67.4434C55.148 67.6413 55.7354 67.7063 56.3137 67.6332C57.0679 67.4183 57.808 65.9076 57.9848 64.8583C58.6097 61.1061 57.7583 57.2576 55.609 54.1192C54.9952 53.1566 54.383 52.2016 53.4622 50.7938C56.4338 52.0125 58.8943 53.0957 61.3965 54.0415C64.3783 55.1617 67.1891 54.0588 68.4066 51.4082C69.0202 50.1093 69.1038 48.6225 68.6399 47.2629C68.176 45.9033 67.201 44.7779 65.9214 44.1249C64.8261 43.5666 63.675 43.1252 62.4872 42.8081C60.3489 42.1667 58.214 41.6128 55.7514 40.9549C56.82 40.494 57.5649 40.2009 58.2904 39.856C61.4309 38.3595 64.9154 36.7869 66.0665 33.4374C66.9503 30.8366 68.5889 29.2555 70.1785 27.3805C73.0551 24.0021 73.6287 19.8183 73.749 15.6145ZM42.1237 29.8749C41.8761 26.1125 42.6514 22.3533 44.3671 18.9958C44.5637 18.6984 44.7936 18.4243 45.0522 18.1788C45.3118 18.4822 45.7072 18.7475 45.8096 19.1017C46.1442 20.1542 46.3654 21.2395 46.4697 22.339C46.7757 27.3464 45.5714 32.1589 44.4204 37.1038C42.72 34.9624 42.2715 32.4639 42.1237 29.8749ZM29.9192 26.714C31.3621 27.2928 32.4335 27.4967 33.2515 28.0774C36.317 30.271 38.6656 33.3219 40.002 36.8465C40.196 37.3247 39.6781 38.1369 39.36 38.7284C39.28 38.8743 38.5956 38.8975 38.3292 38.7079C34.6618 36.1198 31.5104 33.0727 29.9827 28.7044C29.8753 28.0465 29.854 27.3774 29.9192 26.714ZM20.7162 41.5781C19.367 40.698 19.4098 40.3117 20.9158 39.6899C23.8973 38.4531 26.9579 38.0085 30.0592 39.3428C32.3084 40.3044 34.624 41.1311 36.9038 42.0137C36.9393 42.1743 36.9214 42.3466 36.9339 42.5122C31.4405 44.0642 25.9757 44.9846 20.7162 41.5781ZM29.1495 54.9458C28.3854 55.3761 27.579 55.7264 26.7431 55.9913C26.3275 56.0497 25.9085 56.0808 25.4888 56.0843C25.1346 56.0409 24.7842 55.971 24.4404 55.8753C24.5554 55.4891 24.5372 54.972 24.7905 54.7396C26.3487 53.1761 28.0116 51.7206 29.7678 50.3833C32.225 48.6611 34.8764 47.2007 37.4616 45.6586C37.8611 45.4676 38.2804 45.3211 38.7119 45.2216C38.9294 45.8756 39.0634 46.5545 39.1108 47.242C39.0029 47.7279 38.7125 48.1538 38.2996 48.4317C35.2315 50.6178 32.1896 52.814 29.1495 54.9458ZM24.1185 87.3273C23.9375 87.5598 23.4883 87.595 23.1638 87.7229C26.7355 81.9057 28.7979 75.6447 30.5964 69.2417C31.0837 67.5304 32.1899 65.9708 33.0897 64.3847C33.2616 64.0741 33.8 63.971 34.1738 63.7761C34.2789 64.1426 34.3614 64.5153 34.4207 64.892C34.5858 66.2906 35.0531 67.7507 34.7945 69.0826C34.3798 71.3391 33.952 73.7909 32.7522 75.6519C30.1086 79.6843 27.0117 83.4802 24.0803 87.3357L24.1185 87.3273ZM38.8158 77.2208C36.9252 82.2652 33.4112 85.4078 27.7439 86.7898C29.5216 84.4242 31.1392 82.4949 32.5048 80.4049C33.9793 78.1545 35.2034 75.751 36.5769 73.4427C36.6912 73.328 36.8331 73.2444 36.9889 73.2001C37.1448 73.1558 37.3094 73.1522 37.467 73.1897C39.3462 74.0007 39.4305 75.4332 38.7708 77.1987L38.8158 77.2208ZM40.3181 70.6748C39.7917 71.5931 39.1711 71.4337 38.8679 70.6429C38.1843 68.894 37.2096 67.0972 37.1747 65.309C37.0817 60.4308 37.7808 55.618 40.0801 51.1887C40.2842 50.8068 40.3739 50.2337 40.6917 50.0752C41.4514 49.6302 42.2965 49.3503 43.1718 49.254C43.4724 49.2356 43.8952 50.1683 44.1384 50.7238C44.3495 51.3015 44.5156 51.8947 44.6351 52.498C46.2377 59.2711 43.6094 65.0399 40.2731 70.6527L40.3181 70.6748ZM43.611 46.3827C43.5295 46.4563 43.4303 46.5074 43.3231 46.5311C43.2159 46.5548 43.1044 46.5503 42.9995 46.518C42.29 45.9979 41.6941 45.3386 41.2479 44.5804C40.9718 43.8397 41.3301 42.9587 41.398 42.1419C41.382 41.8413 41.3876 41.54 41.415 41.2402C41.507 40.8591 41.6282 40.247 41.8405 40.192C42.3832 40.0719 43.2502 39.9683 43.4622 40.2742C44.1847 41.2952 44.8204 42.3748 45.3628 43.5017C44.8331 44.2603 44.2284 45.3322 43.566 46.3606L43.611 46.3827ZM55.6281 63.5195C55.555 63.9694 55.4289 64.4091 55.2525 64.8294C54.8693 64.5633 54.5279 64.2415 54.2395 63.8748C53.3528 62.4034 52.5161 60.9048 51.716 59.3901C50.3497 56.8381 48.985 54.2938 47.7223 51.7028C47.1256 50.5151 46.6008 49.2925 46.1507 48.0417C46.0415 47.7292 46.4079 47.2472 46.4956 47.0274C47.2149 47.7421 47.8427 48.3329 48.4373 48.955C52.3054 53.03 55.8386 57.3315 55.6281 63.5195ZM63.1305 45.8247C64.3673 46.2326 65.3911 47.2728 66.7191 48.1656C66.1949 49.4201 66.0648 50.5713 65.43 51.0726C65.033 51.3686 64.5776 51.5771 64.094 51.684C63.6105 51.791 63.1097 51.7941 62.6249 51.6931C59.8255 50.7089 57.152 49.4965 54.4232 48.3603C52.4439 47.5314 50.4526 46.7212 48.4776 45.8754C48.1028 45.6746 47.7457 45.4424 47.4101 45.1815C48.029 44.355 47.0423 42.5769 48.8672 42.4538C49.904 42.3384 50.953 42.3991 51.9696 42.6334C55.698 43.5404 59.4424 44.556 63.117 45.7635L63.1305 45.8247ZM62.3646 34.2083C58.1971 37.9124 53.2012 39.5388 47.6955 39.7305C47.4407 39.7388 47.0146 39.6246 46.9561 39.4692C46.9247 39.3287 46.9263 39.1828 46.9608 39.043C46.9953 38.9032 47.0616 38.7733 47.1548 38.6635C47.7653 38.0588 48.4266 37.5075 49.1313 37.0157C52.7158 34.6264 56.6901 32.8816 60.875 31.86L61.0507 31.8211L64.0594 31.5404C63.4931 32.3872 63.1083 33.4745 62.3511 34.1471L62.3646 34.2083ZM65.5863 28.5487C65.4087 28.6961 65.1949 28.7933 64.9671 28.83C62.2071 29.2562 59.4361 29.6688 56.8061 30.0662C58.1234 28.7726 59.7601 27.3281 61.2127 25.74C62.8355 23.9762 64.3519 22.1173 65.7539 20.1734C66.2611 19.2807 66.5482 18.28 66.5913 17.2542C66.5331 17.006 66.4122 16.777 66.24 16.589C66.0679 16.4011 65.8503 16.2605 65.6082 16.1808C65.3528 16.1994 65.1062 16.2825 64.8918 16.4226C64.6773 16.5626 64.502 16.7548 64.3822 16.9812C62.7799 21.4807 59.1245 24.3099 55.9627 27.5589C55.2318 28.3139 54.7294 28.0723 54.2453 27.2975C53.372 25.8871 53.6162 24.4541 54.2867 23.063C56.1443 19.2222 58.8937 15.8814 62.3054 13.3196C65.0934 11.0993 67.9136 8.95207 70.8417 6.67671C71.4536 11.2232 71.374 15.8362 70.6054 20.3588C69.9849 23.7512 68.0619 26.2933 65.5728 28.4876L65.5863 28.5487Z"/>
</mask>
<path d="M73.749 15.6145C73.8859 10.9421 73.7018 6.26844 73.567 1.59998C73.5539 1.10579 73.0257 0.276576 72.6555 0.198109C72.3457 0.181356 72.0364 0.24103 71.755 0.371792C71.4736 0.502554 71.2286 0.700436 71.0416 0.948066C69.5576 4.31503 66.835 6.50481 64.0454 8.6453C62.8252 9.58069 61.5278 10.4209 60.35 11.403C56.6144 14.5225 53.4983 18.1223 51.7405 22.7524C50.5394 25.9125 52.0791 29.2118 54.6603 31.022C52.7803 32.0553 50.908 33.0868 49.0152 34.0989C48.7017 34.234 48.3749 34.3359 48.0401 34.4028C48.0011 34.0538 47.9903 33.7023 48.008 33.3516C48.3631 30.4268 49.0256 27.5141 49.0165 24.5737C49.0273 22.0668 48.5802 19.5791 47.6972 17.2329C46.6062 14.4757 43.9511 14.3976 42.5468 17.0013C41.4389 19.1204 40.6088 21.3736 40.0772 23.7051C39.7006 25.8944 39.4722 28.1066 39.3934 30.3266C38.6658 29.3871 37.8485 28.5207 36.953 27.7396C35.3247 26.5765 33.6473 25.2639 31.801 24.7103C31.1081 24.5541 30.3904 24.5432 29.693 24.6781C28.9957 24.8131 28.3338 25.091 27.7492 25.4944C26.3761 26.5358 26.8414 28.349 27.5719 29.7669C28.8899 32.2814 30.3455 34.7656 31.6628 37.0959C31.5031 37.0528 31.3466 36.999 31.1942 36.935C27.0413 35.0876 22.9965 35.6858 19.0846 37.6096C16.3492 38.9443 16.1442 41.1705 18.429 43.1264C20.9195 45.1852 24.049 46.3127 27.2803 46.3155C28.3069 46.353 29.3283 46.3675 30.6138 46.3798C29.0427 47.41 27.5281 48.5239 26.0765 49.7167C24.5412 51.0298 23.1674 52.5206 21.9839 54.1578C20.6184 56.1757 21.5623 58.1957 23.9837 58.4859C25.4967 58.7126 27.043 58.523 28.4564 57.9373C31.0889 56.6815 33.5113 54.983 35.9173 53.5367C35.5723 55.6014 35.2187 57.8444 34.7632 60.0618C34.6938 60.3025 34.5725 60.5251 34.4079 60.7139C34.2433 60.9027 34.0393 61.0531 33.8103 61.1546C32.7451 61.4889 31.7726 62.067 30.97 62.843C30.1675 63.619 29.5569 64.5716 29.187 65.6249C28.4346 67.443 27.9005 69.3411 27.2084 71.1778C25.8898 74.6766 24.64 78.2323 23.1228 81.7028C21.8796 84.5274 20.2239 87.1546 17.3339 88.6599C16.351 89.182 16.0138 90.1946 16.7832 90.9545C17.1861 91.3624 18.2705 91.2267 19.0162 91.1179C19.7618 91.0091 20.3177 90.405 20.9774 90.3793C24.8649 90.277 28.7013 89.469 32.2998 87.9948C37.7235 85.7286 41.8337 79.664 41.8221 73.958C41.8454 73.3553 42.0153 72.7673 42.3171 72.245C44.9494 67.6539 47.485 62.988 47.4987 57.4688C47.4902 57.4306 47.6397 57.3815 47.7671 57.3052C48.112 58.0307 48.3881 58.7713 48.7942 59.4833C50.1134 61.9025 51.5709 64.2436 53.1596 66.495C53.5579 66.9205 54.0515 67.2456 54.5998 67.4434C55.148 67.6413 55.7354 67.7063 56.3137 67.6332C57.0679 67.4183 57.808 65.9076 57.9848 64.8583C58.6097 61.1061 57.7583 57.2576 55.609 54.1192C54.9952 53.1566 54.383 52.2016 53.4622 50.7938C56.4338 52.0125 58.8943 53.0957 61.3965 54.0415C64.3783 55.1617 67.1891 54.0588 68.4066 51.4082C69.0202 50.1093 69.1038 48.6225 68.6399 47.2629C68.176 45.9033 67.201 44.7779 65.9214 44.1249C64.8261 43.5666 63.675 43.1252 62.4872 42.8081C60.3489 42.1667 58.214 41.6128 55.7514 40.9549C56.82 40.494 57.5649 40.2009 58.2904 39.856C61.4309 38.3595 64.9154 36.7869 66.0665 33.4374C66.9503 30.8366 68.5889 29.2555 70.1785 27.3805C73.0551 24.0021 73.6287 19.8183 73.749 15.6145ZM42.1237 29.8749C41.8761 26.1125 42.6514 22.3533 44.3671 18.9958C44.5637 18.6984 44.7936 18.4243 45.0522 18.1788C45.3118 18.4822 45.7072 18.7475 45.8096 19.1017C46.1442 20.1542 46.3654 21.2395 46.4697 22.339C46.7757 27.3464 45.5714 32.1589 44.4204 37.1038C42.72 34.9624 42.2715 32.4639 42.1237 29.8749ZM29.9192 26.714C31.3621 27.2928 32.4335 27.4967 33.2515 28.0774C36.317 30.271 38.6656 33.3219 40.002 36.8465C40.196 37.3247 39.6781 38.1369 39.36 38.7284C39.28 38.8743 38.5956 38.8975 38.3292 38.7079C34.6618 36.1198 31.5104 33.0727 29.9827 28.7044C29.8753 28.0465 29.854 27.3774 29.9192 26.714ZM20.7162 41.5781C19.367 40.698 19.4098 40.3117 20.9158 39.6899C23.8973 38.4531 26.9579 38.0085 30.0592 39.3428C32.3084 40.3044 34.624 41.1311 36.9038 42.0137C36.9393 42.1743 36.9214 42.3466 36.9339 42.5122C31.4405 44.0642 25.9757 44.9846 20.7162 41.5781ZM29.1495 54.9458C28.3854 55.3761 27.579 55.7264 26.7431 55.9913C26.3275 56.0497 25.9085 56.0808 25.4888 56.0843C25.1346 56.0409 24.7842 55.971 24.4404 55.8753C24.5554 55.4891 24.5372 54.972 24.7905 54.7396C26.3487 53.1761 28.0116 51.7206 29.7678 50.3833C32.225 48.6611 34.8764 47.2007 37.4616 45.6586C37.8611 45.4676 38.2804 45.3211 38.7119 45.2216C38.9294 45.8756 39.0634 46.5545 39.1108 47.242C39.0029 47.7279 38.7125 48.1538 38.2996 48.4317C35.2315 50.6178 32.1896 52.814 29.1495 54.9458ZM24.1185 87.3273C23.9375 87.5598 23.4883 87.595 23.1638 87.7229C26.7355 81.9057 28.7979 75.6447 30.5964 69.2417C31.0837 67.5304 32.1899 65.9708 33.0897 64.3847C33.2616 64.0741 33.8 63.971 34.1738 63.7761C34.2789 64.1426 34.3614 64.5153 34.4207 64.892C34.5858 66.2906 35.0531 67.7507 34.7945 69.0826C34.3798 71.3391 33.952 73.7909 32.7522 75.6519C30.1086 79.6843 27.0117 83.4802 24.0803 87.3357L24.1185 87.3273ZM38.8158 77.2208C36.9252 82.2652 33.4112 85.4078 27.7439 86.7898C29.5216 84.4242 31.1392 82.4949 32.5048 80.4049C33.9793 78.1545 35.2034 75.751 36.5769 73.4427C36.6912 73.328 36.8331 73.2444 36.9889 73.2001C37.1448 73.1558 37.3094 73.1522 37.467 73.1897C39.3462 74.0007 39.4305 75.4332 38.7708 77.1987L38.8158 77.2208ZM40.3181 70.6748C39.7917 71.5931 39.1711 71.4337 38.8679 70.6429C38.1843 68.894 37.2096 67.0972 37.1747 65.309C37.0817 60.4308 37.7808 55.618 40.0801 51.1887C40.2842 50.8068 40.3739 50.2337 40.6917 50.0752C41.4514 49.6302 42.2965 49.3503 43.1718 49.254C43.4724 49.2356 43.8952 50.1683 44.1384 50.7238C44.3495 51.3015 44.5156 51.8947 44.6351 52.498C46.2377 59.2711 43.6094 65.0399 40.2731 70.6527L40.3181 70.6748ZM43.611 46.3827C43.5295 46.4563 43.4303 46.5074 43.3231 46.5311C43.2159 46.5548 43.1044 46.5503 42.9995 46.518C42.29 45.9979 41.6941 45.3386 41.2479 44.5804C40.9718 43.8397 41.3301 42.9587 41.398 42.1419C41.382 41.8413 41.3876 41.54 41.415 41.2402C41.507 40.8591 41.6282 40.247 41.8405 40.192C42.3832 40.0719 43.2502 39.9683 43.4622 40.2742C44.1847 41.2952 44.8204 42.3748 45.3628 43.5017C44.8331 44.2603 44.2284 45.3322 43.566 46.3606L43.611 46.3827ZM55.6281 63.5195C55.555 63.9694 55.4289 64.4091 55.2525 64.8294C54.8693 64.5633 54.5279 64.2415 54.2395 63.8748C53.3528 62.4034 52.5161 60.9048 51.716 59.3901C50.3497 56.8381 48.985 54.2938 47.7223 51.7028C47.1256 50.5151 46.6008 49.2925 46.1507 48.0417C46.0415 47.7292 46.4079 47.2472 46.4956 47.0274C47.2149 47.7421 47.8427 48.3329 48.4373 48.955C52.3054 53.03 55.8386 57.3315 55.6281 63.5195ZM63.1305 45.8247C64.3673 46.2326 65.3911 47.2728 66.7191 48.1656C66.1949 49.4201 66.0648 50.5713 65.43 51.0726C65.033 51.3686 64.5776 51.5771 64.094 51.684C63.6105 51.791 63.1097 51.7941 62.6249 51.6931C59.8255 50.7089 57.152 49.4965 54.4232 48.3603C52.4439 47.5314 50.4526 46.7212 48.4776 45.8754C48.1028 45.6746 47.7457 45.4424 47.4101 45.1815C48.029 44.355 47.0423 42.5769 48.8672 42.4538C49.904 42.3384 50.953 42.3991 51.9696 42.6334C55.698 43.5404 59.4424 44.556 63.117 45.7635L63.1305 45.8247ZM62.3646 34.2083C58.1971 37.9124 53.2012 39.5388 47.6955 39.7305C47.4407 39.7388 47.0146 39.6246 46.9561 39.4692C46.9247 39.3287 46.9263 39.1828 46.9608 39.043C46.9953 38.9032 47.0616 38.7733 47.1548 38.6635C47.7653 38.0588 48.4266 37.5075 49.1313 37.0157C52.7158 34.6264 56.6901 32.8816 60.875 31.86L61.0507 31.8211L64.0594 31.5404C63.4931 32.3872 63.1083 33.4745 62.3511 34.1471L62.3646 34.2083ZM65.5863 28.5487C65.4087 28.6961 65.1949 28.7933 64.9671 28.83C62.2071 29.2562 59.4361 29.6688 56.8061 30.0662C58.1234 28.7726 59.7601 27.3281 61.2127 25.74C62.8355 23.9762 64.3519 22.1173 65.7539 20.1734C66.2611 19.2807 66.5482 18.28 66.5913 17.2542C66.5331 17.006 66.4122 16.777 66.24 16.589C66.0679 16.4011 65.8503 16.2605 65.6082 16.1808C65.3528 16.1994 65.1062 16.2825 64.8918 16.4226C64.6773 16.5626 64.502 16.7548 64.3822 16.9812C62.7799 21.4807 59.1245 24.3099 55.9627 27.5589C55.2318 28.3139 54.7294 28.0723 54.2453 27.2975C53.372 25.8871 53.6162 24.4541 54.2867 23.063C56.1443 19.2222 58.8937 15.8814 62.3054 13.3196C65.0934 11.0993 67.9136 8.95207 70.8417 6.67671C71.4536 11.2232 71.374 15.8362 70.6054 20.3588C69.9849 23.7512 68.0619 26.2933 65.5728 28.4876L65.5863 28.5487Z" fill="#E89F39" stroke="#EEE4CF" stroke-width="1.2" mask="url(#path-1-inside-1_35_51)"/>
</svg>
