<svg width="120" height="93" viewBox="0 0 120 93" fill="none" xmlns="http://www.w3.org/2000/svg">
<path d="M119.108 91.684C118.737 91.553 118.353 91.479 117.966 91.4641C109.617 91.405 101.436 87.7495 93.557 84.8954C86.2358 82.272 78.7917 80.4776 71.5632 77.4992C69.687 76.7089 67.8255 75.8925 65.9784 75.0501C64.4007 74.3179 61.5398 73.5392 60.397 72.1835C61.4821 71.6203 62.898 71.7403 64.0849 71.711C66.5024 71.6474 68.908 71.3582 71.2767 70.8463C73.2006 70.4338 75.9763 70.0891 77.6933 69.0263L79.1356 68.1456C86.6943 63.5484 91.4567 54.1039 89.4087 44.2676C88.8293 41.6302 87.6979 39.177 86.1087 37.1128C84.9421 35.4653 83.5835 33.9998 82.0702 32.7568C76.6501 28.3216 70.2816 25.598 63.6415 24.8754C58.827 24.3332 52.652 24.6186 48.5898 27.7703C43.5587 30.7388 39.4237 35.7701 37.7419 41.8736C36.4678 46.499 36.7374 51.5105 38.501 55.9814C40.5044 60.9145 44.237 64.223 48.1265 67.2271C48.4925 67.5112 49.0104 67.6007 49.1632 68.3571C47.8886 68.2552 46.6402 68.2748 45.4309 68.0524C41.0893 67.2657 36.8494 65.8485 32.8184 63.8367C30.5892 62.7271 28.4253 61.4552 26.3407 60.0293C24.273 58.616 22.2895 57.0512 20.4034 55.3452C18.5204 53.6491 16.7409 51.8125 15.0776 49.8481C13.4079 47.8886 11.8625 45.8008 10.4528 43.6006C9.03205 41.3967 7.75295 39.0834 6.62539 36.6786C5.28708 33.8576 4.18108 30.9083 3.32133 27.8683C2.98829 26.7635 2.71163 25.6392 2.49271 24.5009C0.93701 16.8906 1.24776 8.7346 3.94191 1.60737C4.07912 1.32381 4.14461 1.00269 4.1314 0.678168C4.09554 0.531836 4.02194 0.400059 3.91991 0.299515C3.81789 0.19897 3.69202 0.134171 3.55822 0.113305C3.48678 0.0942384 3.41244 0.0960391 3.34236 0.118574C3.27229 0.14111 3.20885 0.183594 3.15815 0.241939C3.10376 0.323809 3.06427 0.417029 3.04189 0.516369C2.73954 1.67873 2.31047 2.76725 1.93913 3.89989C1.56511 5.07804 1.28913 6.29391 1.11469 7.53214C0.966044 8.52713 0.823474 9.52173 0.662692 10.5175C0.435973 11.7558 0.265069 13.0069 0.150624 14.2663C0.0635312 15.5515 0.135595 16.8469 0.15214 18.1322C0.157914 19.1582 0.175828 20.1834 0.25963 21.1907C0.297301 21.7698 0.383093 22.339 0.451115 22.9162C0.628993 24.5263 0.855433 26.1333 1.16597 27.7211C1.5006 29.2731 1.91967 30.802 2.42082 32.2992C3.01321 34.1903 3.65328 36.0645 4.36442 37.9068C5.14689 40.0709 6.11701 42.1462 7.26066 44.1025C10.1528 49.0812 13.8085 53.4527 18.055 57.0102C20.2112 58.8622 22.4499 60.5894 24.7618 62.1848C34.0398 68.6496 44.1972 71.3897 54.9512 71.9629C55.279 72.0288 55.5916 72.1718 55.8685 72.3822C59.8894 74.7609 64.0386 76.8497 68.2904 78.6358C72.6726 80.4035 77.1415 81.9124 81.5988 83.4289C85.0383 84.5737 88.5641 85.4528 91.9902 86.6738C96.9794 88.402 102.025 89.6886 107.065 91.0715C109.704 91.8255 112.387 92.3509 115.092 92.6432C116.086 92.7359 118.389 93.2909 119.276 92.7679C120.162 92.245 119.72 91.9111 119.108 91.684ZM3.64942 36.099L3.91763 36.5674L3.64942 36.099ZM53.2026 68.1354C49.1646 65.661 45.4615 62.6175 42.8151 58.3898C39.1102 52.5068 38.2813 46.1356 41.2945 39.6034C44.6653 32.2885 50.1768 28.2693 57.3558 26.9265C60.1434 26.4078 62.9929 26.3841 65.8003 26.8562C67.1865 27.0808 68.5702 27.3603 69.9401 27.7091C71.2916 27.988 72.6154 28.4248 73.8897 29.0123C75.6071 29.8124 77.2444 30.8187 78.7727 32.0133C84.5893 36.5274 87.8142 42.7154 87.1646 50.7223C86.651 57.0714 83.2214 61.4205 78.4053 64.416C74.2162 67.0218 69.5781 67.9735 64.8604 68.4514C62.0869 68.7344 59.3 68.8131 56.5071 68.8921C55.3691 68.9842 54.2257 68.7224 53.2026 68.1354V68.1354Z" fill="#E99F39"/>
</svg>
